<svg width="150" height="100" viewBox="0 0 150 100" fill="none" xmlns="http://www.w3.org/2000/svg">
<path d="M49.742 41.502C49.466 41.922 49.28 42.384 49.18 42.862L48.42 42.934V44.404L49.18 44.476C49.278 44.952 49.464 45.414 49.742 45.836L49.258 46.422L50.298 47.462L50.884 46.978C51.304 47.254 51.766 47.44 52.244 47.54L52.316 48.3H53.786L53.858 47.54C54.334 47.44 54.796 47.256 55.218 46.978L55.804 47.462L56.844 46.422L56.36 45.836C56.636 45.416 56.822 44.954 56.922 44.476L57.682 44.404V42.934L56.922 42.862C56.824 42.386 56.638 41.924 56.36 41.502L56.844 40.916L55.804 39.876L55.218 40.36C54.798 40.084 54.334 39.898 53.858 39.798L53.786 39.038H52.316L52.244 39.798C51.768 39.896 51.306 40.082 50.884 40.36L50.298 39.876L49.258 40.916L49.742 41.502ZM54.456 42.26C55.234 43.038 55.234 44.298 54.456 45.074C53.678 45.852 52.418 45.852 51.64 45.074C50.862 44.296 50.862 43.036 51.64 42.258C52.418 41.48 53.678 41.48 54.454 42.258L54.456 42.26Z" fill="#F5F5F5"/>
<path d="M86.608 44.556C86.428 44.83 86.306 45.132 86.242 45.442L85.748 45.488V46.446L86.242 46.492C86.306 46.802 86.428 47.104 86.608 47.378L86.292 47.76L86.97 48.438L87.352 48.122C87.626 48.302 87.928 48.424 88.238 48.488L88.284 48.982H89.242L89.288 48.488C89.598 48.424 89.9 48.302 90.174 48.122L90.556 48.438L91.234 47.76L90.918 47.378C91.098 47.104 91.22 46.802 91.284 46.492L91.778 46.446V45.488L91.284 45.442C91.22 45.132 91.098 44.83 90.918 44.556L91.234 44.174L90.556 43.496L90.174 43.812C89.9 43.632 89.598 43.51 89.288 43.446L89.242 42.952H88.284L88.238 43.446C87.928 43.51 87.626 43.632 87.352 43.812L86.97 43.496L86.292 44.174L86.608 44.556ZM89.68 45.05C90.186 45.556 90.186 46.378 89.68 46.884C89.174 47.39 88.352 47.39 87.846 46.884C87.34 46.378 87.34 45.556 87.846 45.05C88.352 44.544 89.174 44.544 89.68 45.05Z" fill="#F5F5F5"/>
<path d="M92.556 51.742C92.37 52.024 92.246 52.334 92.18 52.654L91.67 52.702V53.688L92.18 53.736C92.246 54.056 92.372 54.366 92.556 54.648L92.23 55.042L92.928 55.74L93.322 55.414C93.604 55.6 93.914 55.724 94.234 55.79L94.282 56.3H95.268L95.316 55.79C95.636 55.724 95.946 55.598 96.228 55.414L96.622 55.74L97.32 55.042L96.994 54.648C97.18 54.366 97.304 54.056 97.37 53.736L97.88 53.688V52.702L97.37 52.654C97.304 52.334 97.178 52.024 96.994 51.742L97.32 51.348L96.622 50.65L96.228 50.976C95.946 50.79 95.636 50.666 95.316 50.6L95.268 50.09H94.282L94.234 50.6C93.914 50.666 93.604 50.792 93.322 50.976L92.928 50.65L92.23 51.348L92.556 51.742ZM95.72 52.252C96.242 52.774 96.242 53.62 95.72 54.142C95.198 54.664 94.352 54.664 93.83 54.142C93.308 53.62 93.308 52.774 93.83 52.252C94.352 51.73 95.198 51.73 95.72 52.252Z" fill="#E0E0E0"/>
<path d="M20.076 55.944C19.64 56.608 19.346 57.34 19.19 58.092L17.99 58.204V60.528L19.19 60.642C19.346 61.396 19.64 62.126 20.076 62.79L19.31 63.716L20.952 65.358L21.878 64.592C22.542 65.028 23.274 65.322 24.026 65.478L24.138 66.678H26.462L26.576 65.478C27.33 65.322 28.06 65.028 28.724 64.592L29.65 65.358L31.292 63.716L30.526 62.79C30.962 62.126 31.256 61.394 31.412 60.642L32.612 60.528V58.204L31.412 58.09C31.256 57.336 30.962 56.606 30.526 55.942L31.292 55.016L29.65 53.374L28.724 54.14C28.058 53.704 27.328 53.41 26.576 53.254L26.462 52.054H24.138L24.026 53.254C23.272 53.41 22.542 53.704 21.878 54.14L20.952 53.374L19.31 55.016L20.076 55.942V55.944ZM27.526 57.144C28.754 58.372 28.754 60.364 27.526 61.592C26.298 62.82 24.306 62.82 23.078 61.592C21.85 60.364 21.85 58.372 23.078 57.144C24.306 55.916 26.298 55.916 27.526 57.144Z" fill="#F5F5F5"/>
<path d="M116.976 57.19C116.696 57.618 116.506 58.088 116.406 58.572L115.634 58.644V60.138L116.406 60.21C116.506 60.694 116.696 61.164 116.976 61.592L116.484 62.188L117.54 63.244L118.136 62.752C118.564 63.032 119.034 63.222 119.518 63.322L119.59 64.094H121.084L121.156 63.322C121.64 63.222 122.11 63.032 122.538 62.752L123.134 63.244L124.19 62.188L123.698 61.592C123.978 61.164 124.168 60.694 124.268 60.21L125.04 60.138V58.644L124.268 58.572C124.168 58.088 123.978 57.618 123.698 57.19L124.19 56.594L123.134 55.538L122.538 56.03C122.11 55.75 121.64 55.56 121.156 55.46L121.084 54.688H119.59L119.518 55.46C119.034 55.56 118.564 55.75 118.136 56.03L117.54 55.538L116.484 56.594L116.976 57.19ZM121.768 57.962C122.558 58.752 122.558 60.034 121.768 60.824C120.978 61.614 119.696 61.614 118.906 60.824C118.116 60.034 118.116 58.752 118.906 57.962C119.696 57.172 120.976 57.172 121.768 57.962Z" fill="#F5F5F5"/>
<path d="M18.014 69.24C17.792 69.578 17.644 69.948 17.564 70.33L16.954 70.388V71.568L17.564 71.626C17.644 72.008 17.792 72.38 18.014 72.716L17.624 73.186L18.458 74.02L18.928 73.63C19.266 73.852 19.636 74 20.018 74.08L20.076 74.69H21.256L21.314 74.08C21.696 74 22.068 73.852 22.404 73.63L22.874 74.02L23.708 73.186L23.318 72.716C23.54 72.378 23.688 72.008 23.768 71.626L24.378 71.568V70.388L23.768 70.33C23.688 69.948 23.54 69.576 23.318 69.24L23.708 68.77L22.874 67.936L22.404 68.326C22.066 68.104 21.696 67.956 21.314 67.876L21.256 67.266H20.076L20.018 67.876C19.636 67.956 19.264 68.104 18.928 68.326L18.458 67.936L17.624 68.77L18.014 69.24ZM21.796 69.848C22.42 70.472 22.42 71.482 21.796 72.106C21.172 72.73 20.16 72.73 19.538 72.106C18.916 71.482 18.914 70.472 19.538 69.848C20.162 69.224 21.172 69.224 21.796 69.848Z" fill="#E0E0E0"/>
<path d="M94.124 42.424C93.856 42.834 93.674 43.284 93.578 43.748L92.838 43.818V45.25L93.578 45.32C93.674 45.784 93.856 46.234 94.124 46.644L93.652 47.214L94.664 48.226L95.234 47.754C95.644 48.022 96.094 48.204 96.558 48.3L96.628 49.04H98.06L98.13 48.3C98.594 48.204 99.044 48.022 99.454 47.754L100.024 48.226L101.036 47.214L100.564 46.644C100.832 46.234 101.014 45.784 101.11 45.32L101.85 45.25V43.818L101.112 43.748C101.016 43.284 100.834 42.834 100.566 42.424L101.038 41.854L100.026 40.842L99.456 41.314C99.046 41.046 98.596 40.864 98.132 40.768L98.062 40.028H96.63L96.56 40.768C96.096 40.864 95.646 41.046 95.236 41.314L94.666 40.842L93.654 41.854L94.126 42.424H94.124ZM98.714 43.162C99.47 43.918 99.47 45.146 98.714 45.902C97.958 46.658 96.73 46.658 95.974 45.902C95.218 45.146 95.218 43.918 95.974 43.162C96.73 42.406 97.958 42.406 98.714 43.162Z" fill="#E0E0E0"/>
<path d="M33.1212 26.3069L14.2762 30.7859L17.4825 44.2761L36.3275 39.7971L33.1212 26.3069Z" fill="#E0E0E0"/>
<path d="M32.5091 27.0095L15.137 31.1385L18.0932 43.576L35.4652 39.447L32.5091 27.0095Z" fill="#FAFAFA"/>
<path d="M18.094 43.574L17.648 41.6981C18.28 39.5841 20.344 36.3801 21.236 36.1261C22.716 35.7041 25.69 37.8481 25.69 37.8481C25.69 37.8481 28.628 32.7201 29.574 32.2701C31.084 31.5541 34.418 35.036 34.418 35.036L35.466 39.4441L18.094 43.574Z" fill="#EBEBEB"/>
<path d="M25.926 32.776C26.056 33.634 25.466 34.436 24.608 34.566C23.75 34.696 22.948 34.106 22.818 33.248C22.688 32.39 23.278 31.588 24.136 31.458C24.994 31.328 25.796 31.918 25.926 32.776Z" fill="#EBEBEB"/>
<path d="M123.32 17.7781L99.5737 16.8036L98.876 33.8033L122.622 34.7778L123.32 17.7781Z" fill="#E0E0E0"/>
<path d="M122.365 18.4035L100.474 17.5051L99.8305 33.1779L121.722 34.0763L122.365 18.4035Z" fill="#FAFAFA"/>
<path d="M99.83 33.1821L99.928 30.8181C101.378 28.5321 104.88 25.4341 106.018 25.4301C107.908 25.4241 110.706 28.9441 110.706 28.9441C110.706 28.9441 115.88 23.8641 117.148 23.6481C119.17 23.3041 121.948 28.5261 121.948 28.5261L121.72 34.0801L99.828 33.1801L99.83 33.1821Z" fill="#EBEBEB"/>
<path d="M112.67 23.032C112.538 24.088 111.576 24.84 110.518 24.708C109.462 24.576 108.71 23.614 108.842 22.556C108.974 21.5 109.936 20.748 110.994 20.88C112.05 21.012 112.802 21.974 112.67 23.032Z" fill="#EBEBEB"/>
<path d="M136.302 45.9603L123.362 43.5504L121.637 52.8131L134.577 55.223L136.302 45.9603Z" fill="#E0E0E0"/>
<path d="M135.729 46.2279L123.8 44.0063L122.21 52.5455L134.139 54.7671L135.729 46.2279Z" fill="#FAFAFA"/>
<path d="M122.206 52.554L122.446 51.266C123.42 50.126 125.586 48.706 126.21 48.794C127.246 48.94 128.502 51.09 128.502 51.09C128.502 51.09 131.74 48.714 132.452 48.696C133.588 48.666 134.698 51.75 134.698 51.75L134.134 54.776L122.206 52.554Z" fill="#EBEBEB"/>
<path d="M130.046 48.004C129.89 48.574 129.304 48.908 128.734 48.752C128.166 48.596 127.83 48.01 127.986 47.44C128.142 46.87 128.728 46.536 129.298 46.692C129.868 46.848 130.202 47.434 130.046 48.004Z" fill="#EBEBEB"/>
<path d="M70.224 14.2C70.254 14.2 70.278 14.224 70.276 14.254C70.276 14.272 70.266 14.29 70.25 14.3L65.622 16.738L65.402 16.856L63.032 18.102L54.878 18.376C54.848 18.376 54.824 18.352 54.826 18.322C54.826 18.304 54.836 18.286 54.852 18.276L61.97 14.528C62.036 14.492 62.108 14.474 62.184 14.472L64.744 14.384L64.994 14.376L70.224 14.202V14.2Z" fill="#E6E6E6"/>
<path d="M66.854 15.148C66.692 14.884 64.74 15.158 62.414 15.774C60.088 16.39 58.258 17.12 58.246 17.43L59.202 21.036C59.22 21.104 59.288 21.142 59.356 21.126L67.724 18.908C67.792 18.892 67.832 18.824 67.816 18.756L66.86 15.148H66.852H66.854Z" fill="#EBEBEB"/>
<path d="M66.15 17.992L66.352 18.754L66.292 18.77L66.124 18.312L66.202 18.792L66.102 18.818L65.932 18.362L66.01 18.842L65.91 18.868L65.74 18.412L65.82 18.892L65.76 18.908L65.558 18.146C65.528 18.026 65.572 17.902 65.67 17.828L64.756 14.38L65.006 14.372L65.906 17.766C66.024 17.786 66.12 17.874 66.15 17.99V17.992Z" fill="#E0E0E0"/>
<path d="M134.746 64.804H98.596C97.95 64.804 97.424 64.278 97.424 63.632V10.976C97.424 10.33 97.95 9.80402 98.596 9.80402H134.746C135.392 9.80402 135.918 10.33 135.918 10.976V63.63C135.918 64.276 135.392 64.802 134.746 64.802V64.804ZM98.598 9.85402C97.98 9.85402 97.476 10.358 97.476 10.976V63.63C97.476 64.248 97.98 64.752 98.598 64.752H134.748C135.366 64.752 135.87 64.248 135.87 63.63V10.976C135.87 10.358 135.366 9.85402 134.748 9.85402H98.598Z" fill="#E0E0E0"/>
<path d="M93.062 64.804H56.912C56.266 64.804 55.74 64.278 55.74 63.632V10.976C55.74 10.33 56.266 9.80402 56.912 9.80402H93.062C93.708 9.80402 94.234 10.33 94.234 10.976V63.63C94.234 64.276 93.708 64.802 93.062 64.802V64.804ZM56.912 9.85402C56.294 9.85402 55.79 10.358 55.79 10.976V63.63C55.79 64.248 56.294 64.752 56.912 64.752H93.062C93.68 64.752 94.184 64.248 94.184 63.63V10.976C94.184 10.358 93.68 9.85402 93.062 9.85402H56.912Z" fill="#E0E0E0"/>
<path d="M51.402 64.804H15.254C14.608 64.804 14.082 64.278 14.082 63.632V10.976C14.082 10.33 14.608 9.80402 15.254 9.80402H51.404C52.05 9.80402 52.576 10.33 52.576 10.976V63.63C52.576 64.276 52.05 64.802 51.404 64.802L51.402 64.804ZM15.254 9.85402C14.636 9.85402 14.132 10.358 14.132 10.976V63.63C14.132 64.248 14.636 64.752 15.254 64.752H51.404C52.022 64.752 52.526 64.248 52.526 63.63V10.976C52.526 10.358 52.022 9.85402 51.404 9.85402H15.254Z" fill="#E0E0E0"/>
<path d="M150 77.018H0V77.042H150V77.018Z" fill="#E0E0E0"/>
<path d="M141.872 82.892H130.726V82.976H141.872V82.892Z" fill="#EBEBEB"/>
<path d="M101.934 83.806H99.008V83.89H101.934V83.806Z" fill="#EBEBEB"/>
<path d="M22.662 80.332H8.128V80.416H22.662V80.332Z" fill="#EBEBEB"/>
<path d="M27.792 80.332H25.66V80.416H27.792V80.332Z" fill="#EBEBEB"/>
<path d="M66.24 81.754H34.718V81.838H66.24V81.754Z" fill="#EBEBEB"/>
<path d="M143.994 89.52C143.994 90.258 112.746 90.856 74.2 90.856C35.654 90.856 4.406 90.258 4.406 89.52C4.406 88.782 35.654 88.184 74.2 88.184C112.746 88.184 143.994 88.782 143.994 89.52Z" fill="#F5F5F5"/>
<path d="M21.06 79.814L20.178 79.69C20.334 78.59 21.254 76.508 23.608 76.508C26.394 76.508 27.782 78.116 27.92 79.714L27.038 79.79C26.936 78.596 25.832 77.39 23.606 77.39C21.38 77.39 21.082 79.716 21.062 79.814H21.06Z" fill="#263238"/>
<path d="M31.382 79.038H17.05C16.2658 79.038 15.63 79.6737 15.63 80.458V87.87C15.63 88.6542 16.2658 89.29 17.05 89.29H31.382C32.1662 89.29 32.802 88.6542 32.802 87.87V80.458C32.802 79.6737 32.1662 79.038 31.382 79.038Z" fill="#263238"/>
<path opacity="0.2" d="M31.382 79.038H17.05C16.2658 79.038 15.63 79.6737 15.63 80.458V87.87C15.63 88.6542 16.2658 89.29 17.05 89.29H31.382C32.1662 89.29 32.802 88.6542 32.802 87.87V80.458C32.802 79.6737 32.1662 79.038 31.382 79.038Z" fill="white"/>
<path d="M27.926 89.448C15.786 89.448 15.198 81.122 15.198 81.034L15.692 80.07C15.712 80.378 16.668 88.56 27.936 88.56C32.574 88.56 36.576 88.56 36.982 87.678C37.338 86.898 35.6 84.896 32.812 81.688V80.446C36.364 84.536 38.376 86.736 37.786 88.034C37.162 89.396 34.48 89.448 27.928 89.448H27.926Z" fill="#263238"/>
<path d="M130.916 82.822H129.796V86.504H130.916V82.822Z" fill="#263238"/>
<path d="M130.342 83.414C128.6 83.414 126.886 82.984 125.35 82.16L125.88 81.174C130.504 83.644 136.254 81.9 138.724 77.276C139.926 75.026 140.172 72.386 139.406 69.952C139.106 68.988 138.65 68.078 138.06 67.26C137.214 66.084 136.11 65.118 134.832 64.432L135.36 63.446C135.948 63.762 136.508 64.132 137.028 64.552C137.764 65.146 138.416 65.836 138.968 66.604C139.63 67.52 140.138 68.536 140.474 69.614C142.236 75.204 139.134 81.164 133.544 82.926C132.508 83.252 131.428 83.418 130.342 83.418V83.414Z" fill="#263238"/>
<g opacity="0.3">
<path d="M130.342 83.414C128.6 83.414 126.886 82.984 125.35 82.16L125.88 81.174C130.504 83.644 136.254 81.9 138.724 77.276C139.926 75.026 140.172 72.386 139.406 69.952C139.106 68.988 138.65 68.078 138.06 67.26C137.214 66.084 136.11 65.118 134.832 64.432L135.36 63.446C135.948 63.762 136.508 64.132 137.028 64.552C137.764 65.146 138.416 65.836 138.968 66.604C139.63 67.52 140.138 68.536 140.474 69.614C142.236 75.204 139.134 81.164 133.544 82.926C132.508 83.252 131.428 83.418 130.342 83.418V83.414Z" fill="white"/>
</g>
<path d="M124.99 83.094C124.944 83.094 124.898 83.084 124.858 83.06C124.726 82.986 124.674 82.822 124.744 82.686L135.478 62.662C135.55 62.526 135.72 62.474 135.856 62.546C135.992 62.618 136.044 62.788 135.972 62.924L125.236 82.94C125.188 83.032 125.094 83.09 124.99 83.092V83.094Z" fill="#263238"/>
<g opacity="0.4">
<path d="M124.99 83.094C124.944 83.094 124.898 83.084 124.858 83.06C124.726 82.986 124.674 82.822 124.744 82.686L135.478 62.662C135.55 62.526 135.72 62.474 135.856 62.546C135.992 62.618 136.044 62.788 135.972 62.924L125.236 82.94C125.188 83.032 125.094 83.09 124.99 83.092V83.094Z" fill="white"/>
</g>
<path d="M128.31 86.232H132.402C132.676 86.232 132.898 86.454 132.898 86.728V87.642H127.814V86.728C127.814 86.454 128.036 86.232 128.308 86.232H128.31Z" fill="#263238"/>
<path d="M130.776 64.628C135.29 64.86 138.762 68.708 138.532 73.222C138.3 77.736 134.452 81.208 129.938 80.978C125.424 80.746 121.952 76.898 122.182 72.384C122.414 67.868 126.262 64.398 130.776 64.628Z" fill="#FF1867"/>
<path opacity="0.2" d="M132.914 65.034C133.032 67.496 132.242 70.154 130.512 72.438C128.596 74.966 125.926 76.506 123.264 76.894C121.012 72.972 122.366 67.966 126.286 65.714C128.3 64.558 130.708 64.31 132.914 65.034Z" fill="white"/>
<g opacity="0.3">
<path d="M128.31 86.232H132.402C132.676 86.232 132.898 86.454 132.898 86.728V87.642H127.814V86.728C127.814 86.454 128.036 86.232 128.308 86.232H128.31Z" fill="white"/>
</g>
<path d="M126.102 87.374H134.612C134.932 87.374 135.19 87.632 135.19 87.952V88.902H125.524V87.952C125.524 87.632 125.782 87.374 126.102 87.374Z" fill="#263238"/>
<g opacity="0.4">
<path d="M126.102 87.374H134.612C134.932 87.374 135.19 87.632 135.19 87.952V88.902H125.524V87.952C125.524 87.632 125.782 87.374 126.102 87.374Z" fill="white"/>
</g>
<path d="M126.21 33.922C127.84 36.136 127.368 39.252 125.156 40.882C123.448 42.142 121.204 42.142 119.518 41.06L118.078 41.462L118.25 39.892C118.234 39.87 118.214 39.85 118.198 39.828C116.568 37.614 117.04 34.498 119.252 32.868C121.466 31.238 124.582 31.71 126.212 33.922H126.21Z" fill="#FF1867"/>
<path opacity="0.7" d="M126.21 33.922C127.84 36.136 127.368 39.252 125.156 40.882C123.448 42.142 121.204 42.142 119.518 41.06L118.078 41.462L118.25 39.892C118.234 39.87 118.214 39.85 118.198 39.828C116.568 37.614 117.04 34.498 119.252 32.868C121.466 31.238 124.582 31.71 126.212 33.922H126.21Z" fill="white"/>
<path d="M126.532 33.438C126.516 33.438 126.5 33.43 126.49 33.416C125.616 32.132 124.068 31.318 122.516 31.318C122.474 31.318 122.432 31.318 122.388 31.318C122.364 31.32 122.338 31.296 122.336 31.27C122.336 31.242 122.356 31.22 122.384 31.218C124.01 31.17 125.656 32.01 126.572 33.358C126.588 33.38 126.582 33.412 126.558 33.428C126.55 33.434 126.54 33.436 126.53 33.436L126.532 33.438ZM120.938 31.482C121.162 31.396 121.406 31.358 121.644 31.368C121.672 31.37 121.696 31.348 121.696 31.32C121.696 31.292 121.676 31.27 121.648 31.268C121.394 31.256 121.138 31.298 120.902 31.39C120.876 31.4 120.864 31.428 120.874 31.454C120.882 31.474 120.9 31.486 120.92 31.486C120.926 31.486 120.932 31.486 120.938 31.482Z" fill="#FF1867"/>
<path opacity="0.7" d="M126.532 33.438C126.516 33.438 126.5 33.43 126.49 33.416C125.616 32.132 124.068 31.318 122.516 31.318C122.474 31.318 122.432 31.318 122.388 31.318C122.364 31.32 122.338 31.296 122.336 31.27C122.336 31.242 122.356 31.22 122.384 31.218C124.01 31.17 125.656 32.01 126.572 33.358C126.588 33.38 126.582 33.412 126.558 33.428C126.55 33.434 126.54 33.436 126.53 33.436L126.532 33.438ZM120.938 31.482C121.162 31.396 121.406 31.358 121.644 31.368C121.672 31.37 121.696 31.348 121.696 31.32C121.696 31.292 121.676 31.27 121.648 31.268C121.394 31.256 121.138 31.298 120.902 31.39C120.876 31.4 120.864 31.428 120.874 31.454C120.882 31.474 120.9 31.486 120.92 31.486C120.926 31.486 120.932 31.486 120.938 31.482Z" fill="white"/>
<path d="M121.078 36.72C121.078 37.09 120.778 37.388 120.41 37.388C120.042 37.388 119.742 37.088 119.742 36.72C119.742 36.352 120.042 36.052 120.41 36.052C120.778 36.052 121.078 36.352 121.078 36.72Z" fill="#FF1867"/>
<path d="M122.456 37.388C122.825 37.388 123.124 37.0889 123.124 36.72C123.124 36.3511 122.825 36.052 122.456 36.052C122.087 36.052 121.788 36.3511 121.788 36.72C121.788 37.0889 122.087 37.388 122.456 37.388Z" fill="#FF1867"/>
<path d="M124.502 37.388C124.871 37.388 125.17 37.0889 125.17 36.72C125.17 36.3511 124.871 36.052 124.502 36.052C124.133 36.052 123.834 36.3511 123.834 36.72C123.834 37.0889 124.133 37.388 124.502 37.388Z" fill="#FF1867"/>
<path d="M50.894 29.742C49.354 27.786 46.464 27.41 44.442 28.9C42.88 30.05 42.298 31.976 42.82 33.694L42.09 34.83L43.528 35.078C43.544 35.098 43.556 35.12 43.572 35.138C45.112 37.094 48 37.47 50.024 35.98C52.046 34.49 52.436 31.698 50.896 29.742H50.894Z" fill="#FF1867"/>
<path opacity="0.7" d="M50.894 29.742C49.354 27.786 46.464 27.41 44.442 28.9C42.88 30.05 42.298 31.976 42.82 33.694L42.09 34.83L43.528 35.078C43.544 35.098 43.556 35.12 43.572 35.138C45.112 37.094 48 37.47 50.024 35.98C52.046 34.49 52.436 31.698 50.896 29.742H50.894Z" fill="white"/>
<path d="M52.256 33.738C52.256 33.738 52.246 33.738 52.24 33.736C52.214 33.728 52.2 33.698 52.208 33.672C52.662 32.318 52.35 30.732 51.414 29.632C51.396 29.612 51.398 29.58 51.42 29.562C51.44 29.544 51.472 29.546 51.49 29.568C52.448 30.694 52.768 32.318 52.302 33.704C52.296 33.724 52.276 33.738 52.254 33.738H52.256ZM51.768 34.936C51.91 34.756 52.014 34.544 52.07 34.324C52.076 34.298 52.06 34.27 52.034 34.264C52.006 34.256 51.98 34.274 51.974 34.3C51.922 34.506 51.824 34.706 51.69 34.874C51.672 34.896 51.676 34.928 51.698 34.944C51.708 34.952 51.718 34.954 51.728 34.954C51.742 34.954 51.758 34.948 51.768 34.934V34.936Z" fill="#FF1867"/>
<path opacity="0.7" d="M52.256 33.738C52.256 33.738 52.246 33.738 52.24 33.736C52.214 33.728 52.2 33.698 52.208 33.672C52.662 32.318 52.35 30.732 51.414 29.632C51.396 29.612 51.398 29.58 51.42 29.562C51.44 29.544 51.472 29.546 51.49 29.568C52.448 30.694 52.768 32.318 52.302 33.704C52.296 33.724 52.276 33.738 52.254 33.738H52.256ZM51.768 34.936C51.91 34.756 52.014 34.544 52.07 34.324C52.076 34.298 52.06 34.27 52.034 34.264C52.006 34.256 51.98 34.274 51.974 34.3C51.922 34.506 51.824 34.706 51.69 34.874C51.672 34.896 51.676 34.928 51.698 34.944C51.708 34.952 51.718 34.954 51.728 34.954C51.742 34.954 51.758 34.948 51.768 34.934V34.936Z" fill="white"/>
<path d="M48.33 32.34C48.33 32.67 48.606 32.938 48.948 32.938C49.29 32.938 49.566 32.67 49.566 32.34C49.566 32.01 49.29 31.742 48.948 31.742C48.606 31.742 48.33 32.01 48.33 32.34Z" fill="#FF1867"/>
<path d="M46.438 32.34C46.438 32.67 46.714 32.938 47.056 32.938C47.398 32.938 47.674 32.67 47.674 32.34C47.674 32.01 47.398 31.742 47.056 31.742C46.714 31.742 46.438 32.01 46.438 32.34Z" fill="#FF1867"/>
<path d="M44.546 32.34C44.546 32.67 44.822 32.938 45.164 32.938C45.506 32.938 45.782 32.67 45.782 32.34C45.782 32.01 45.506 31.742 45.164 31.742C44.822 31.742 44.546 32.01 44.546 32.34Z" fill="#FF1867"/>
<path d="M85.186 10.93C81.724 10.89 78.884 13.664 78.844 17.126C78.822 19.004 79.644 20.794 81.084 22.002C81.348 22.22 81.754 22.484 81.744 23.032C81.744 23.048 81.772 24.402 81.772 24.402H88.366C88.366 24.402 88.394 22.996 88.394 22.98C88.394 22.498 88.768 22.29 89.042 22.072C90.5 20.902 91.36 19.142 91.382 17.272C91.422 13.81 88.648 10.97 85.186 10.93Z" fill="#FF1867"/>
<path opacity="0.4" d="M85.186 10.93C81.724 10.89 78.884 13.664 78.844 17.126C78.822 19.004 79.644 20.794 81.084 22.002C81.348 22.22 81.754 22.484 81.744 23.032C81.744 23.048 81.772 24.402 81.772 24.402H88.366C88.366 24.402 88.394 22.996 88.394 22.98C88.394 22.498 88.768 22.29 89.042 22.072C90.5 20.902 91.36 19.142 91.382 17.272C91.422 13.81 88.648 10.97 85.186 10.93Z" fill="white"/>
<path opacity="0.2" d="M88.302 13.63C88.302 14.85 86.874 15.842 85.102 15.842C83.33 15.842 81.902 14.85 81.902 13.63C81.902 12.41 83.33 11.416 85.102 11.416C86.874 11.416 88.302 12.408 88.302 13.63Z" fill="white"/>
<path d="M80.292 19.606C79.738 18.656 79.52 17.532 79.682 16.444C79.842 15.356 80.374 14.342 81.18 13.592L81.248 13.666C80.46 14.4 79.938 15.392 79.78 16.458C79.622 17.524 79.834 18.624 80.378 19.556L80.292 19.606Z" fill="white"/>
<path d="M86.934 23.062C86.614 22.218 86.348 21.352 86.136 20.466C85.812 20.75 85.458 20.896 85.116 20.878C84.84 20.864 84.562 20.748 84.278 20.526C84.236 21.384 84.092 22.236 83.852 23.06L83.66 23.004C83.912 22.146 84.054 21.256 84.086 20.362C84.04 20.318 83.994 20.274 83.948 20.224C83.246 19.494 82.918 18.588 83.07 17.804C83.128 17.506 83.308 17.216 83.58 17.216C83.828 17.222 84.012 17.466 84.096 17.904C84.246 18.686 84.31 19.482 84.288 20.276C84.58 20.534 84.856 20.666 85.126 20.68C85.532 20.7 85.876 20.446 86.084 20.244C85.93 19.57 85.81 18.886 85.722 18.194C85.69 17.944 85.666 17.7 85.722 17.462C85.788 17.172 85.976 16.952 86.2 16.904C86.586 16.82 86.9 17.234 87.008 17.684C87.222 18.58 86.952 19.602 86.324 20.286C86.318 20.292 86.314 20.298 86.308 20.304C86.522 21.22 86.794 22.12 87.126 22.992L86.938 23.062H86.934ZM83.57 17.414C83.424 17.414 83.306 17.628 83.264 17.84C83.124 18.562 83.432 19.4 84.088 20.084C84.096 19.368 84.032 18.648 83.896 17.94C83.872 17.818 83.78 17.42 83.572 17.414H83.568H83.57ZM86.292 17.092C86.274 17.092 86.256 17.092 86.238 17.098C86.07 17.134 85.954 17.328 85.914 17.504C85.866 17.71 85.89 17.934 85.918 18.164C86 18.802 86.11 19.436 86.248 20.06C86.77 19.432 86.996 18.51 86.81 17.726C86.732 17.4 86.522 17.09 86.292 17.09V17.092Z" fill="#263238"/>
<path d="M88.8 24.004H81.37C81.1933 24.004 81.05 24.1472 81.05 24.324V24.48C81.05 24.6567 81.1933 24.8 81.37 24.8H88.8C88.9767 24.8 89.12 24.6567 89.12 24.48V24.324C89.12 24.1472 88.9767 24.004 88.8 24.004Z" fill="#263238"/>
<path opacity="0.3" d="M88.8 24.004H81.37C81.1933 24.004 81.05 24.1472 81.05 24.324V24.48C81.05 24.6567 81.1933 24.8 81.37 24.8H88.8C88.9767 24.8 89.12 24.6567 89.12 24.48V24.324C89.12 24.1472 88.9767 24.004 88.8 24.004Z" fill="white"/>
<path d="M88.668 24.728H81.5C81.3233 24.728 81.18 24.8712 81.18 25.048V25.178C81.18 25.3547 81.3233 25.498 81.5 25.498H88.668C88.8447 25.498 88.988 25.3547 88.988 25.178V25.048C88.988 24.8712 88.8447 24.728 88.668 24.728Z" fill="#263238"/>
<path opacity="0.3" d="M88.668 24.728H81.5C81.3233 24.728 81.18 24.8712 81.18 25.048V25.178C81.18 25.3547 81.3233 25.498 81.5 25.498H88.668C88.8447 25.498 88.988 25.3547 88.988 25.178V25.048C88.988 24.8712 88.8447 24.728 88.668 24.728Z" fill="white"/>
<path d="M82.608 26.596C83.102 27.5 84.144 28.454 85.172 28.394C86.202 28.334 87.168 27.458 87.552 26.502L82.608 26.596Z" fill="#263238"/>
<path d="M88.19 26.116H81.976C81.7993 26.116 81.656 26.2592 81.656 26.436V26.566C81.656 26.7427 81.7993 26.886 81.976 26.886H88.19C88.3667 26.886 88.51 26.7427 88.51 26.566V26.436C88.51 26.2592 88.3667 26.116 88.19 26.116Z" fill="#263238"/>
<path opacity="0.3" d="M88.19 26.116H81.976C81.7993 26.116 81.656 26.2592 81.656 26.436V26.566C81.656 26.7427 81.7993 26.886 81.976 26.886H88.19C88.3667 26.886 88.51 26.7427 88.51 26.566V26.436C88.51 26.2592 88.3667 26.116 88.19 26.116Z" fill="white"/>
<path d="M88.564 25.41H81.606C81.4293 25.41 81.286 25.5532 81.286 25.73V25.86C81.286 26.0367 81.4293 26.18 81.606 26.18H88.564C88.7407 26.18 88.884 26.0367 88.884 25.86V25.73C88.884 25.5532 88.7407 25.41 88.564 25.41Z" fill="#263238"/>
<path opacity="0.3" d="M88.564 25.41H81.606C81.4293 25.41 81.286 25.5532 81.286 25.73V25.86C81.286 26.0367 81.4293 26.18 81.606 26.18H88.564C88.7407 26.18 88.884 26.0367 88.884 25.86V25.73C88.884 25.5532 88.7407 25.41 88.564 25.41Z" fill="white"/>
<path d="M81.632 8.65597C82.108 9.13197 82.586 9.60997 83.062 10.086C83.13 10.154 83.236 10.048 83.168 9.97997C82.692 9.50397 82.214 9.02597 81.738 8.54997C81.67 8.48197 81.564 8.58797 81.632 8.65597Z" fill="#263238"/>
<path d="M85.36 9.52399V6.81999C85.36 6.72399 85.21 6.72399 85.21 6.81999V9.52399C85.21 9.61999 85.36 9.61999 85.36 9.52399Z" fill="#263238"/>
<path d="M87.342 10.202C87.858 9.68597 88.372 9.17197 88.888 8.65597C88.956 8.58797 88.85 8.48197 88.782 8.54997C88.266 9.06597 87.752 9.57997 87.236 10.096C87.168 10.164 87.274 10.27 87.342 10.202Z" fill="#263238"/>
<path d="M118.484 79.664H31.486V88.978H118.484V79.664Z" fill="#FF1867"/>
<path d="M61.376 80.638H31.486V88.004H61.376V80.638Z" fill="white"/>
<path d="M31.486 82.454C40.578 82.356 50.776 82.356 59.868 82.454C50.776 82.552 40.578 82.552 31.486 82.454Z" fill="#263238"/>
<path d="M31.486 83.328C40.578 83.23 50.776 83.23 59.868 83.328C50.776 83.426 40.578 83.426 31.486 83.328Z" fill="#263238"/>
<path d="M31.486 84.2C40.578 84.102 50.776 84.102 59.868 84.2C50.776 84.298 40.578 84.298 31.486 84.2Z" fill="#263238"/>
<path d="M31.486 85.074C40.578 84.976 50.776 84.976 59.868 85.074C50.776 85.172 40.578 85.172 31.486 85.074Z" fill="#263238"/>
<path d="M31.486 85.948C40.578 85.85 50.776 85.85 59.868 85.948C50.776 86.046 40.578 86.046 31.486 85.948Z" fill="#263238"/>
<path d="M31.486 86.822C40.578 86.724 50.776 86.724 59.868 86.822C50.776 86.92 40.578 86.92 31.486 86.822Z" fill="#263238"/>
<path d="M31.486 81.58C40.578 81.482 50.776 81.482 59.868 81.58C50.776 81.678 40.578 81.678 31.486 81.58Z" fill="#263238"/>
<path opacity="0.3" d="M71.682 79.664H69.014V88.978H71.682V79.664Z" fill="white"/>
<path opacity="0.3" d="M112.376 79.664H109.708V88.978H112.376V79.664Z" fill="white"/>
<path opacity="0.2" d="M63.07 79.664H31.486V88.978H63.07V79.664Z" fill="black"/>
<path d="M95.17 60.008H44.618V66.642H95.17V60.008Z" fill="#FF1867"/>
<path d="M65.912 60.702H44.618V65.95H65.912V60.702Z" fill="white"/>
<path d="M44.618 61.994C51.094 61.896 58.362 61.896 64.838 61.994C58.362 62.092 51.094 62.092 44.618 61.994Z" fill="#263238"/>
<path d="M44.618 62.616C51.094 62.518 58.362 62.518 64.838 62.616C58.362 62.714 51.094 62.714 44.618 62.616Z" fill="#263238"/>
<path d="M44.618 63.2399C51.094 63.1419 58.362 63.1419 64.838 63.2399C58.362 63.3379 51.094 63.3379 44.618 63.2399Z" fill="#263238"/>
<path d="M44.618 63.862C51.094 63.764 58.362 63.764 64.838 63.862C58.362 63.96 51.094 63.96 44.618 63.862Z" fill="#263238"/>
<path d="M44.618 64.484C51.094 64.386 58.362 64.386 64.838 64.484C58.362 64.582 51.094 64.582 44.618 64.484Z" fill="#263238"/>
<path d="M44.618 65.106C51.094 65.008 58.362 65.008 64.838 65.106C58.362 65.204 51.094 65.204 44.618 65.106Z" fill="#263238"/>
<path d="M44.618 61.372C51.094 61.274 58.362 61.274 64.838 61.372C58.362 61.47 51.094 61.47 44.618 61.372Z" fill="#263238"/>
<path opacity="0.3" d="M93.116 60.008H91.214V66.642H93.116V60.008Z" fill="black"/>
<path opacity="0.3" d="M72.898 60.008H70.996V66.642H72.898V60.008Z" fill="black"/>
<path opacity="0.2" d="M67.12 60.008H44.618V66.642H67.12V60.008Z" fill="black"/>
<path opacity="0.3" d="M89.294 62.35H74.588V64.292H89.294V62.35Z" fill="black"/>
<path d="M97.132 75.762H26.176V79.666H97.132V75.762Z" fill="#263238"/>
<path d="M55.99 76.266H26.176V79.162H55.99V76.266Z" fill="white"/>
<path d="M26.38 76.84C35.472 76.742 45.67 76.742 54.762 76.84C45.67 76.938 35.472 76.938 26.38 76.84Z" fill="#263238"/>
<path d="M26.38 77.7141C35.472 77.6161 45.67 77.6161 54.762 77.7141C45.67 77.8121 35.472 77.8121 26.38 77.7141Z" fill="#263238"/>
<path d="M26.38 78.586C35.472 78.488 45.67 78.488 54.762 78.586C45.67 78.684 35.472 78.684 26.38 78.586Z" fill="#263238"/>
<path opacity="0.3" d="M64.462 75.762H63.712V79.666H64.462V75.762Z" fill="white"/>
<path opacity="0.3" d="M65.858 75.762H65.108V79.666H65.858V75.762Z" fill="white"/>
<path opacity="0.3" d="M92.356 75.762H91.606V79.666H92.356V75.762Z" fill="white"/>
<path opacity="0.3" d="M93.752 75.762H93.002V79.666H93.752V75.762Z" fill="white"/>
<path opacity="0.2" d="M56.714 75.76H26.172V79.664H56.714V75.76Z" fill="black"/>
<path d="M110.906 66.608H39.95V70.512H110.906V66.608Z" fill="#263238"/>
<path d="M69.764 67.112H39.95V70.008H69.764V67.112Z" fill="white"/>
<path d="M40.154 67.686C49.246 67.588 59.444 67.588 68.536 67.686C59.444 67.784 49.246 67.784 40.154 67.686Z" fill="#263238"/>
<path d="M40.154 68.56C49.246 68.462 59.444 68.462 68.536 68.56C59.444 68.658 49.246 68.658 40.154 68.56Z" fill="#263238"/>
<path d="M40.154 69.434C49.246 69.336 59.444 69.336 68.536 69.434C59.444 69.532 49.246 69.532 40.154 69.434Z" fill="#263238"/>
<path opacity="0.3" d="M78.236 66.608H77.486V70.512H78.236V66.608Z" fill="white"/>
<path opacity="0.3" d="M79.632 66.608H78.882V70.512H79.632V66.608Z" fill="white"/>
<path opacity="0.3" d="M106.132 66.608H105.382V70.512H106.132V66.608Z" fill="white"/>
<path opacity="0.3" d="M107.528 66.608H106.778V70.512H107.528V66.608Z" fill="white"/>
<path opacity="0.2" d="M70.488 66.606H39.946V70.51H70.488V66.606Z" fill="black"/>
<path d="M29.106 75.8L100.062 75.8V70.474L29.106 70.474V75.8Z" fill="#FF1867"/>
<path opacity="0.4" d="M29.106 75.8L100.062 75.8V70.474L29.106 70.474V75.8Z" fill="white"/>
<path d="M70.25 75.296H100.064V71.086H70.25V75.296Z" fill="white"/>
<path d="M99.86 72.974C90.768 73.072 80.57 73.072 71.478 72.974C80.57 72.876 90.768 72.876 99.86 72.974Z" fill="#263238"/>
<path d="M99.86 73.848C90.768 73.946 80.57 73.946 71.478 73.848C80.57 73.75 90.768 73.75 99.86 73.848Z" fill="#263238"/>
<path d="M99.86 74.7219C90.768 74.8199 80.57 74.8199 71.478 74.7219C80.57 74.6239 90.768 74.6239 99.86 74.7219Z" fill="#263238"/>
<path d="M99.86 72.0679C90.768 72.1659 80.57 72.1659 71.478 72.0679C80.57 71.9699 90.768 71.9699 99.86 72.0679Z" fill="#263238"/>
<path opacity="0.2" d="M69.526 75.796H100.068V70.47H69.526V75.796Z" fill="black"/>
<path opacity="0.4" d="M63.444 72.068H35.45V73.848H63.444V72.068Z" fill="white"/>
<path d="M111.566 70.648C111.566 70.648 90.742 66.412 89.886 70.75C88.664 76.94 103.706 80.636 111.646 80.15C119.586 79.662 111.566 70.65 111.566 70.65V70.648Z" fill="#263238"/>
<path opacity="0.2" d="M111.566 70.648C111.566 70.648 90.742 66.412 89.886 70.75C88.664 76.94 103.706 80.636 111.646 80.15C119.586 79.662 111.566 70.65 111.566 70.65V70.648Z" fill="black"/>
<path opacity="0.2" d="M96.71 71.8781L106.604 77.7641L105.362 79.6441C105.362 79.6441 106.074 80.6361 107.282 77.4901L101.156 73.6961C101.156 73.6961 103.032 73.4521 102.976 73.1601C102.882 72.6801 98.724 71.8821 96.826 71.5241C96.728 71.4921 96.622 71.5461 96.59 71.6441C96.558 71.7421 96.612 71.8481 96.71 71.8801V71.8781Z" fill="black"/>
<path opacity="0.2" d="M106.936 77.0581L105.332 79.8381C107.42 80.1401 109.536 80.2441 111.646 80.1481C112.34 80.1241 113.024 79.9781 113.664 79.7201L114.224 78.6201L112.874 76.0941L106.936 77.0581Z" fill="black"/>
<path d="M103.688 76.0681L108.09 78.6801L107.378 80.8001L102.238 78.6701L103.688 76.0681Z" fill="#EBB373"/>
<path d="M110.488 79.3121L110.108 80.8321C110.108 80.8321 109.792 80.9081 109.702 81.2281C109.652 81.4081 109.798 81.8961 109.798 81.8961L108.786 86.0841C108.786 86.0841 108.498 86.0161 108.386 85.9381C108.248 85.8441 108.136 85.7481 108.046 85.6501C107.728 85.3041 107.68 84.7921 107.658 84.4121C107.62 83.7741 107.198 81.9241 107.198 81.9241C107.198 81.9241 107.044 81.4421 106.518 81.0301C106.226 80.8001 106.084 80.5021 106.106 80.3161C106.148 79.9341 106.418 79.7841 106.774 79.8161L107.188 79.8541C107.476 79.6261 107.556 79.2521 107.358 78.8981C107.358 78.8981 107.088 78.0001 107.472 78.1421C107.692 78.2221 108.658 78.6201 109.43 78.9101C109.61 78.9781 109.78 79.0421 109.93 79.0981C110.262 79.2241 110.49 79.3101 110.49 79.3101L110.488 79.3121Z" fill="#263238"/>
<path d="M107.384 82.9141C107.372 82.8921 107.376 82.8621 107.396 82.8441C107.482 82.7601 107.592 82.698 107.714 82.668C107.78 82.652 107.812 82.756 107.746 82.772C107.636 82.798 107.54 82.8521 107.464 82.9261C107.438 82.9501 107.4 82.946 107.382 82.916L107.384 82.9141Z" fill="#FF1867"/>
<path d="M107.288 82.5481C107.276 82.5261 107.282 82.4961 107.3 82.4781C107.386 82.3941 107.496 82.3321 107.618 82.3021C107.684 82.2861 107.716 82.3901 107.65 82.4061C107.54 82.4321 107.444 82.4861 107.368 82.5601C107.342 82.5841 107.304 82.5801 107.286 82.5501L107.288 82.5481Z" fill="#FF1867"/>
<path d="M107.206 82.1761C107.194 82.1541 107.198 82.1241 107.218 82.1061C107.304 82.0221 107.414 81.9601 107.536 81.9301C107.602 81.9141 107.634 82.0181 107.568 82.0341C107.458 82.0601 107.362 82.1141 107.286 82.1881C107.26 82.2121 107.222 82.2081 107.204 82.1781L107.206 82.1761Z" fill="#FF1867"/>
<path opacity="0.2" d="M109.928 79.1001C110.26 79.2261 110.488 79.3121 110.488 79.3121L110.108 80.8321C110.108 80.8321 109.792 80.9081 109.702 81.2281C109.652 81.4081 109.798 81.8961 109.798 81.8961L108.786 86.0841C108.786 86.0841 108.498 86.0161 108.386 85.9381C108.322 85.8961 108.266 85.8521 108.214 85.8081L109.848 79.0681C109.876 79.0781 109.906 79.0901 109.932 79.1001H109.928Z" fill="white"/>
<path d="M106.62 82.492C106.514 82.492 106.412 82.464 106.332 82.41C106.268 82.368 106.204 82.29 106.22 82.204C106.236 82.12 106.314 82.072 106.38 82.046C106.51 81.994 106.664 81.98 106.836 82.006C106.986 82.028 107.132 82.078 107.274 82.124L107.318 82.14L107.282 82.168C107.198 82.232 106.912 82.444 106.76 82.476C106.714 82.486 106.668 82.492 106.622 82.492H106.62ZM106.67 82.042C106.57 82.042 106.478 82.058 106.396 82.09C106.354 82.106 106.28 82.146 106.268 82.21C106.256 82.272 106.308 82.332 106.358 82.366C106.462 82.436 106.604 82.458 106.746 82.426C106.872 82.398 107.11 82.23 107.21 82.154C107.084 82.112 106.956 82.072 106.826 82.052C106.772 82.044 106.72 82.04 106.668 82.04L106.67 82.042Z" fill="#FF1867"/>
<path d="M107.292 82.18L107.254 82.152C107.134 82.062 107.012 81.97 106.908 81.86C106.788 81.734 106.712 81.6 106.68 81.462C106.664 81.394 106.658 81.302 106.72 81.242C106.782 81.18 106.882 81.188 106.954 81.216C107.082 81.266 107.192 81.38 107.252 81.528C107.312 81.674 107.3 82.028 107.296 82.134V82.182L107.292 82.18ZM106.842 81.244C106.808 81.244 106.776 81.252 106.752 81.276C106.706 81.322 106.716 81.404 106.726 81.45C106.756 81.578 106.828 81.704 106.94 81.824C107.03 81.92 107.138 82.002 107.242 82.082C107.248 81.88 107.242 81.644 107.2 81.546C107.144 81.412 107.046 81.308 106.93 81.262C106.902 81.252 106.87 81.244 106.84 81.244H106.842Z" fill="#FF1867"/>
<path d="M102.634 57.742C102.634 57.742 102.076 64.488 101.886 64.854C101.24 66.094 96.78 68.318 96.78 68.318L94.46 67.904L92.848 69.332L93.962 70.154L95.226 69.634C95.928 69.738 96.636 69.778 97.344 69.756C98.534 69.72 104.47 68.236 105.38 66.608C106.29 64.98 106.278 57.41 106.278 57.41L102.632 57.742H102.634Z" fill="#EBB373"/>
<path d="M106.462 60.274C106.462 60.274 108.06 54.316 105.804 52.742C103.548 51.168 102.032 59.338 102.032 59.338L106.462 60.274Z" fill="#FF1867"/>
<path opacity="0.5" d="M106.462 60.274C106.462 60.274 108.06 54.316 105.804 52.742C103.548 51.168 102.032 59.338 102.032 59.338L106.462 60.274Z" fill="white"/>
<path d="M105.382 71.116L105.168 63.288L105.02 52.566L109.614 51.426L112.832 51.396L118.274 53.09L118.458 55.716C118.458 55.716 118.29 67.806 118.33 68.17C118.38 68.616 119.76 71.378 119.76 71.378C114.014 72.866 105.3 71.516 105.378 71.114L105.382 71.116Z" fill="#FF1867"/>
<path opacity="0.2" d="M105.136 59.994L105.058 55.326L104.238 59.804L105.136 59.994Z" fill="black"/>
<path opacity="0.2" d="M114.948 60.442C114.804 60.418 114.22 60.246 114.22 60.246L115.548 55.696L113.492 60.694L114.83 61.182L114.946 60.442H114.948Z" fill="black"/>
<path d="M115.458 56.724C115.458 56.724 114.556 64.222 113.928 64.938C112.868 66.15 107.536 69.438 107.536 69.438L104.8 68.568C104.608 68.512 104.4 68.552 104.248 68.674L102.438 70.142L102.62 70.286C102.698 70.348 102.81 70.358 102.898 70.31L103.182 70.158L102.87 70.482L102.974 70.564C103.078 70.646 103.22 70.674 103.348 70.634L104.17 70.388L103.422 70.918C103.596 71.056 103.836 71.1 104.052 71.032L105.252 70.652C106.084 70.816 106.928 70.912 107.776 70.938C109.204 70.984 115.868 68.432 117.072 66.674C118.276 64.914 119.36 57.724 119.36 57.724L115.458 56.722V56.724Z" fill="#EBB373"/>
<path d="M119.188 61.584C119.188 61.584 120.666 54.77 118.41 53.194C116.154 51.62 114.22 60.244 114.22 60.244L119.188 61.584Z" fill="#FF1867"/>
<path opacity="0.5" d="M119.188 61.584C119.188 61.584 120.666 54.77 118.41 53.194C116.154 51.62 114.22 60.244 114.22 60.244L119.188 61.584Z" fill="white"/>
<path d="M101.372 70.718L105.536 70.596L109.954 70.466C109.962 70.796 109.604 71.072 109.154 71.084L104.74 71.214L102.214 71.288H102.202L95.174 71.496C94.728 71.506 94.362 71.252 94.354 70.926L101.372 70.72V70.718Z" fill="#263238"/>
<path d="M95.046 71.464L102.886 71.232C103.022 71.228 103.128 71.136 103.124 71.026C103.124 71.006 103.118 70.986 103.11 70.966L99.386 63.072C99.292 62.846 99.024 62.698 98.726 62.706L90.88 62.938C90.748 62.942 90.642 63.032 90.646 63.138C90.646 63.16 90.652 63.182 90.662 63.204L94.386 71.098C94.482 71.322 94.748 71.47 95.046 71.464Z" fill="#263238"/>
<path opacity="0.7" d="M90.88 62.938L98.726 62.706C99.024 62.698 99.292 62.846 99.386 63.072L102.97 70.668L105.538 70.592L109.956 70.462C109.964 70.792 109.606 71.068 109.156 71.08L104.742 71.21L102.216 71.284H102.204L95.176 71.492C95.034 71.496 94.904 71.47 94.786 71.426C94.602 71.37 94.452 71.252 94.386 71.096L90.662 63.202C90.652 63.182 90.646 63.16 90.646 63.136C90.642 63.03 90.748 62.94 90.88 62.936V62.938Z" fill="white"/>
<path d="M95.718 67.058C95.898 67.436 96.25 67.69 96.504 67.628C96.758 67.566 96.816 67.216 96.64 66.836C96.464 66.456 96.11 66.208 95.854 66.27C95.6 66.332 95.532 66.67 95.716 67.058H95.718Z" fill="white"/>
<g opacity="0.3">
<path d="M99.386 63.074L102.97 70.67L102.606 70.68L98.726 62.706C99.024 62.698 99.292 62.846 99.386 63.072V63.074Z" fill="black"/>
</g>
<path d="M112.97 51.966C112.97 51.966 112.138 50.318 112.676 47.59C112.346 47.436 112.782 46.754 112.768 46.48L109.326 49.048C109.486 49.892 109.324 51.562 109.202 52.272L110.53 53.478L112.968 51.966H112.97Z" fill="#EBB373"/>
<path opacity="0.2" d="M109.418 49.554L111.414 49.394C111.078 49.986 110.84 50.506 109.38 50.566C109.38 50.566 109.368 49.836 109.418 49.552V49.554Z" fill="black"/>
<path d="M108.042 41.428C107.428 42.152 107.162 44.24 108.56 44.172C109.96 44.106 109.096 40.184 108.042 41.428Z" fill="#263238"/>
<path d="M113.8 45.312C113.026 47.508 112.634 48.764 111.178 49.578C105.086 52.05 105.748 41.616 110.46 41.018C112.864 40.778 114.574 43.114 113.8 45.312Z" fill="#EBB373"/>
<path d="M115.604 42.526C115.288 40.384 111.808 40.492 110.766 40.876C110.61 40.934 112.178 42.374 112.078 42.3L112.854 42.844C113.948 43.398 111.974 45.162 112.916 47.074C114.998 46.804 115.764 44.088 115.604 42.526Z" fill="#263238"/>
<path d="M114.152 47.428C113.55 48.55 111.366 48.846 111.934 47.114C112.38 45.41 115.026 45.42 114.152 47.428Z" fill="#EBB373"/>
<path d="M110.466 45.054C110.316 45.596 109.766 45.428 109.926 44.894C110.076 44.352 110.626 44.52 110.466 45.054Z" fill="#263238"/>
<path d="M108.146 44.45C107.996 44.992 107.446 44.824 107.606 44.29C107.756 43.748 108.306 43.916 108.146 44.45Z" fill="#263238"/>
<path d="M108.926 44.532C108.926 44.532 107.878 45.462 107.514 45.86C107.75 46.238 108.336 46.262 108.336 46.262L108.926 44.532Z" fill="#E4873E"/>
<path d="M111.282 44.128C111.244 44.132 111.204 44.116 111.178 44.082C110.884 43.68 110.474 43.694 110.47 43.694C110.026 43.4 110.95 43.336 111.358 43.952C111.41 44.018 111.364 44.12 111.282 44.128Z" fill="#263238"/>
<path opacity="0.2" d="M112.606 47.092C112.606 47.092 112.596 47.092 112.59 47.09C112.564 47.082 112.55 47.054 112.558 47.028C112.664 46.696 113.056 46.372 113.382 46.348C113.534 46.338 113.734 46.38 113.862 46.642C113.874 46.666 113.862 46.696 113.84 46.708C113.816 46.72 113.786 46.71 113.774 46.686C113.69 46.516 113.562 46.436 113.39 46.448C113.106 46.468 112.748 46.766 112.654 47.058C112.648 47.08 112.628 47.092 112.606 47.092Z" fill="black"/>
<path d="M107.444 43.204C107.368 43.166 107.366 43.046 107.444 43.006C107.982 42.712 108.432 42.956 108.454 42.964C108.58 43.03 108.476 43.23 108.35 43.162C108.29 43.066 107.856 43.076 107.446 43.204H107.444Z" fill="#263238"/>
<path d="M114.706 45.954C114.706 45.954 113.162 43.748 111.276 42.72C109.188 41.582 107.66 41.92 107.66 41.92C107.66 41.92 107.302 41.57 107.532 41.372C107.762 41.174 107.976 41.348 107.976 41.348C107.976 41.348 110.216 38.962 112.888 39.724C115.562 40.486 116.452 42.138 116.344 42.258C115.794 42.868 115.478 41.922 115.478 41.922C115.478 41.922 116.128 42.788 115.378 44.56L115.156 45.254C115.156 45.254 115.34 46.064 114.704 45.956L114.706 45.954Z" fill="#263238"/>
<path opacity="0.7" d="M114.706 45.954C114.706 45.954 113.162 43.748 111.276 42.72C109.188 41.582 107.66 41.92 107.66 41.92C107.66 41.92 107.302 41.57 107.532 41.372C107.762 41.174 107.976 41.348 107.976 41.348C107.976 41.348 110.216 38.962 112.888 39.724C115.562 40.486 116.452 42.138 116.344 42.258C115.794 42.868 115.478 41.922 115.478 41.922C115.478 41.922 116.128 42.788 115.378 44.56L115.156 45.254C115.156 45.254 115.34 46.064 114.704 45.956L114.706 45.954Z" fill="white"/>
<path d="M111.232 42.622C110.946 42.526 110.734 42.24 110.726 41.938C110.72 41.74 110.792 41.55 110.844 41.358C110.894 41.166 110.922 40.954 110.832 40.776C110.754 40.626 110.592 40.522 110.422 40.516C110.252 40.51 110.084 40.602 109.996 40.746C110.06 40.626 110.016 40.474 109.928 40.372C109.84 40.27 109.714 40.208 109.592 40.15C109.374 40.044 109.128 39.934 108.894 40.004C108.66 40.074 108.514 40.304 108.432 40.534C108.328 40.83 108.3 41.162 108.406 41.456C108.548 41.852 108.914 42.132 109.308 42.276C109.702 42.42 110.128 42.444 110.548 42.468" fill="#263238"/>
<path opacity="0.2" d="M115.564 42.076C115.564 42.076 115.26 41.062 114.006 40.554L115.564 42.076Z" fill="black"/>
<path opacity="0.3" d="M115.01 45.21C114.256 43.73 112.68 42.236 111.086 41.492L111.108 41.446C112.71 42.194 114.296 43.696 115.056 45.186L115.012 45.208L115.01 45.21Z" fill="black"/>
<path d="M108.514 47.096C108.678 47.384 108.82 47.686 108.942 47.994C108.998 47.982 109.058 47.972 109.114 47.956C109.89 47.782 110.194 47.446 110.29 47.124C110.334 46.966 110.342 46.8 110.31 46.638C110.294 46.546 110.266 46.458 110.226 46.374C109.87 46.712 109.16 46.93 108.776 47.03C108.608 47.066 108.512 47.094 108.512 47.094L108.514 47.096Z" fill="#263238"/>
<path d="M108.768 47.024L108.902 47.286C109.63 47.12 110.122 46.91 110.302 46.632C110.286 46.54 110.258 46.452 110.218 46.368C109.86 46.71 109.152 46.924 108.768 47.024Z" fill="white"/>
<path d="M109.104 47.95C109.88 47.776 110.184 47.44 110.28 47.118C109.986 47.19 109.708 47.312 109.458 47.48C109.294 47.596 109.17 47.76 109.104 47.948V47.95Z" fill="#C15854"/>
<path d="M99.468 79.65L94.442 80.612L93.57 78.5521L98.83 76.7401L99.468 79.65Z" fill="#EBB373"/>
<path d="M92.228 81.728L91.504 80.338C91.504 80.338 91.69 80.07 91.546 79.772C91.464 79.604 91.032 79.336 91.032 79.336L89.014 75.528C89.014 75.528 89.274 75.388 89.41 75.372C89.574 75.35 89.722 75.348 89.856 75.362C90.322 75.41 90.698 75.762 90.968 76.032C91.418 76.484 92.962 77.59 92.962 77.59C92.962 77.59 93.396 77.848 94.062 77.808C94.434 77.786 94.736 77.916 94.844 78.07C95.066 78.384 94.964 78.676 94.676 78.888L94.34 79.134C94.276 79.496 94.464 79.83 94.846 79.962C94.846 79.962 95.644 80.454 95.264 80.604C95.046 80.688 94.06 81.032 93.288 81.326C93.108 81.394 92.938 81.46 92.788 81.516C92.456 81.642 92.23 81.728 92.23 81.728H92.228Z" fill="#263238"/>
<path d="M92.164 76.974C92.188 76.984 92.204 77.008 92.202 77.034C92.194 77.154 92.154 77.274 92.08 77.378C92.042 77.432 91.948 77.378 91.986 77.322C92.05 77.23 92.086 77.126 92.094 77.02C92.096 76.984 92.13 76.962 92.162 76.974H92.164Z" fill="#FF1867"/>
<path d="M92.478 77.184C92.502 77.194 92.518 77.218 92.516 77.244C92.508 77.364 92.468 77.484 92.394 77.588C92.356 77.642 92.262 77.588 92.3 77.532C92.364 77.44 92.4 77.336 92.408 77.23C92.41 77.194 92.444 77.172 92.476 77.184H92.478Z" fill="#FF1867"/>
<path d="M92.786 77.41C92.81 77.418 92.826 77.444 92.824 77.47C92.816 77.59 92.776 77.71 92.702 77.814C92.664 77.868 92.57 77.814 92.608 77.758C92.672 77.666 92.708 77.562 92.716 77.456C92.718 77.42 92.752 77.398 92.784 77.41H92.786Z" fill="#FF1867"/>
<path opacity="0.2" d="M91.546 79.772C91.464 79.604 91.032 79.336 91.032 79.336L89.014 75.528C89.014 75.528 89.274 75.388 89.41 75.372C89.486 75.362 89.558 75.358 89.626 75.356L92.872 81.484C92.844 81.494 92.814 81.506 92.788 81.516C92.456 81.642 92.228 81.728 92.228 81.728L91.504 80.338C91.504 80.338 91.69 80.07 91.546 79.772Z" fill="white"/>
<path d="M92.728 77.5101L92.736 77.4641C92.756 77.3601 92.83 77.0141 92.922 76.8861C93.016 76.7561 93.148 76.6721 93.286 76.6541C93.362 76.6441 93.462 76.6601 93.506 76.7341C93.54 76.7901 93.536 76.8701 93.492 76.9581C93.428 77.0841 93.322 77.1961 93.176 77.2901C93.048 77.3741 92.906 77.4321 92.77 77.4901L92.726 77.5081L92.728 77.5101ZM93.33 76.7021C93.318 76.7021 93.306 76.7021 93.294 76.7041C93.17 76.7201 93.05 76.7981 92.964 76.9161C92.9 77.0041 92.838 77.2301 92.796 77.4281C92.918 77.3761 93.04 77.3221 93.152 77.2501C93.29 77.1601 93.39 77.0561 93.45 76.9381C93.47 76.8961 93.5 76.8181 93.466 76.7621C93.44 76.7181 93.384 76.7021 93.332 76.7021H93.33Z" fill="#FF1867"/>
<path d="M93.448 77.9881C93.36 77.9881 93.27 77.9661 93.182 77.9241C93.042 77.8561 92.814 77.5821 92.748 77.5001L92.718 77.4641L92.764 77.46C92.914 77.448 93.066 77.4341 93.218 77.4481C93.392 77.4641 93.536 77.5141 93.652 77.5961C93.732 77.6521 93.774 77.7201 93.768 77.7881C93.762 77.8761 93.682 77.9361 93.61 77.9621C93.558 77.9801 93.502 77.9901 93.446 77.9901L93.448 77.9881ZM92.818 77.504C92.948 77.66 93.108 77.8301 93.204 77.8781C93.334 77.9421 93.478 77.9541 93.594 77.9121C93.652 77.8901 93.716 77.8461 93.72 77.7821C93.724 77.7161 93.662 77.6621 93.624 77.6341C93.516 77.5581 93.38 77.5101 93.214 77.4961C93.082 77.4841 92.948 77.492 92.816 77.504H92.818Z" fill="#FF1867"/>
<path d="M118.378 76.788C119.416 75.022 121.74 70.248 116.716 69.48C111.694 68.712 95.236 77.136 95.236 77.136L96.388 80.29L111.852 77.382C111.852 77.382 109.81 80.282 112.384 80.078C116.124 79.596 116.998 78.672 118.378 76.788Z" fill="#263238"/>
<path opacity="0.2" d="M111.486 77.478L115.708 76.012C115.708 76.012 112.196 78.304 110.892 78.604L111.484 77.478H111.486Z" fill="black"/>
<path d="M80.698 35.204L82.21 33.454L83.75 33.998L82.7 36.046L80.698 35.204Z" fill="#EEC1BB"/>
<path d="M81.982 33.308C81.982 33.308 81.85 32.516 82.244 31.98C82.636 31.444 82.808 30.912 83.126 30.534C83.446 30.156 83.452 30.824 83.384 31.18C83.316 31.536 83.242 31.94 83.518 31.948C83.794 31.956 85.884 30.834 86.266 30.89C86.648 30.944 86.366 31.232 86.366 31.232C86.366 31.232 86.882 30.974 87.04 31.15C87.082 31.196 87.102 31.368 86.886 31.524C86.4 31.872 85.34 32.55 85.34 32.55C85.4 32.51 86.766 31.766 86.986 31.682C87.272 31.572 87.464 31.666 87.522 31.834C87.606 32.074 85.942 33.052 85.902 33.142C85.902 33.142 86.84 32.546 87.126 32.704C87.412 32.862 86.842 33.27 86.272 33.532C85.748 33.774 84.784 34.384 84.228 34.578C83.542 34.816 83.03 34.824 82.56 34.332C82.09 33.84 81.982 33.31 81.982 33.31V33.308Z" fill="#EEC1BB"/>
<path opacity="0.3" d="M85.112 31.996C85.112 31.996 85.096 31.992 85.092 31.984C85.084 31.972 85.088 31.956 85.1 31.95C85.486 31.696 85.888 31.458 86.294 31.242C86.306 31.236 86.322 31.242 86.328 31.252C86.334 31.264 86.328 31.28 86.318 31.286C85.914 31.502 85.512 31.74 85.128 31.992C85.124 31.994 85.12 31.996 85.114 31.996H85.112Z" fill="black"/>
<path opacity="0.3" d="M85.556 33.42C85.544 33.42 85.534 33.412 85.532 33.4C85.4 32.826 85.092 32.286 84.666 31.88C84.656 31.87 84.656 31.854 84.666 31.844C84.676 31.834 84.692 31.834 84.702 31.844C85.136 32.256 85.45 32.806 85.584 33.39C85.588 33.404 85.578 33.416 85.566 33.42C85.566 33.42 85.562 33.42 85.56 33.42H85.556Z" fill="black"/>
<path opacity="0.3" d="M83.026 33.544C83.026 33.544 83.01 33.54 83.004 33.532C82.998 33.52 83.002 33.504 83.014 33.498C83.218 33.38 83.38 33.184 83.462 32.962C83.544 32.74 83.544 32.486 83.466 32.264C83.462 32.25 83.468 32.236 83.482 32.232C83.496 32.228 83.51 32.234 83.514 32.248C83.596 32.482 83.596 32.748 83.51 32.98C83.426 33.212 83.254 33.418 83.04 33.542C83.036 33.544 83.032 33.546 83.028 33.546L83.026 33.544Z" fill="black"/>
<path d="M87.29 63.642L88.072 61.3L82.414 58.144L81.186 61.696L87.29 63.642Z" fill="#EEC1BB"/>
<path d="M87.374 60.484L86.958 61.256C86.864 61.43 86.866 61.64 86.952 61.82C87.32 62.592 86.912 62.804 86.078 62.98C85.876 63.268 86.186 63.542 86.266 63.618L88.056 65.324C88.204 65.468 88.442 65.466 88.586 65.316C88.612 65.29 88.634 65.26 88.65 65.226C89.154 64.288 89.392 63.844 90.02 62.676L91.94 59.106C92.464 58.132 91.59 57.404 91.284 57.756C89.916 59.344 88.7 60.336 87.876 60.612C87.728 60.666 87.716 60.522 87.372 60.482L87.374 60.484Z" fill="#263238"/>
<path d="M88.872 59.128C88.858 59.016 88.79 58.916 88.69 58.862C88.64 58.826 88.574 58.822 88.52 58.852C88.218 59.002 88.15 60.21 88.146 60.348C88.144 60.362 88.148 60.376 88.158 60.388C88.176 60.408 88.206 60.41 88.226 60.392C88.41 60.184 88.572 59.96 88.708 59.718C88.824 59.544 88.882 59.338 88.872 59.13V59.128ZM88.56 58.95C88.582 58.936 88.612 58.94 88.632 58.956C88.702 58.998 88.75 59.07 88.764 59.15C88.81 59.458 88.454 59.95 88.248 60.206C88.286 59.71 88.394 59.034 88.56 58.95Z" fill="#FF1867"/>
<path d="M88.254 60.362C88.288 60.006 88.138 59.144 87.87 59.04C87.814 59.016 87.73 59.02 87.642 59.142C87.296 59.64 88.126 60.376 88.166 60.398C88.18 60.412 88.2 60.416 88.218 60.41C88.226 60.402 88.232 60.392 88.234 60.38L88.254 60.362ZM87.71 59.202C87.772 59.11 87.808 59.128 87.82 59.134C87.988 59.188 88.148 59.844 88.144 60.248C87.958 60.064 87.506 59.57 87.688 59.236L87.71 59.202Z" fill="#FF1867"/>
<path d="M88.33 61.2C88.312 61.2 88.296 61.19 88.286 61.174C88.128 60.896 88.1 60.55 88.212 60.248C88.222 60.222 88.25 60.208 88.276 60.218C88.302 60.228 88.314 60.256 88.306 60.282C88.204 60.556 88.23 60.87 88.372 61.124C88.386 61.148 88.378 61.178 88.354 61.192C88.346 61.196 88.338 61.198 88.33 61.198V61.2Z" fill="#FF1867"/>
<path d="M88.948 60.914C88.93 60.914 88.914 60.904 88.904 60.888C88.746 60.61 88.718 60.264 88.83 59.962C88.84 59.936 88.868 59.924 88.894 59.932C88.92 59.942 88.932 59.97 88.924 59.996C88.822 60.27 88.846 60.584 88.99 60.838C89.004 60.862 88.996 60.892 88.972 60.906C88.964 60.91 88.956 60.912 88.948 60.912V60.914Z" fill="#FF1867"/>
<path d="M89.574 60.48C89.556 60.48 89.54 60.47 89.53 60.454C89.372 60.176 89.344 59.83 89.456 59.528C89.466 59.502 89.494 59.488 89.52 59.498C89.546 59.508 89.558 59.536 89.55 59.562C89.448 59.836 89.474 60.15 89.616 60.404C89.63 60.428 89.622 60.458 89.598 60.472C89.59 60.476 89.582 60.478 89.574 60.478V60.48Z" fill="#FF1867"/>
<path opacity="0.3" d="M85.404 59.812L86.098 60.2L85.022 62.918L84.21 62.6599L85.404 59.812Z" fill="black"/>
<path d="M69.68 47.936L72.502 49.662C76.126 49.842 88.374 49.942 88.41 54.3C89.612 59.436 78.522 58.946 71.148 59.018C71.098 59.018 71.056 59.048 71.026 59.096C70.96 59.198 70.246 59.564 69.332 59.71C68.206 59.888 65.632 60.046 63.978 59.784C61.124 59.332 60.302 56.622 60.848 52.81C61.072 51.244 61.938 49.972 62.2 48.02L69.68 47.938V47.936Z" fill="#263238"/>
<path opacity="0.2" d="M61.946 53.732L61.964 53.91C61.964 53.91 71.292 52.366 76.974 56.1C76.974 56.1 83.132 54.59 84.384 53.44C77.564 57.028 71.456 52.874 71.456 52.874L68.448 51.53C65.99 50.432 63.514 51.27 61.948 53.732H61.946Z" fill="black"/>
<path d="M72.506 59.774L73.584 61.994L79.836 60.296L78.232 56.896L72.506 59.774Z" fill="#EEC1BB"/>
<path d="M74.964 61.946L74.448 61.236C74.332 61.076 74.142 60.986 73.944 60.986C73.088 60.984 73.076 60.522 73.276 59.696C73.104 59.39 72.724 59.55 72.62 59.59L70.306 60.464C70.112 60.536 70.012 60.75 70.082 60.946C70.094 60.98 70.112 61.014 70.134 61.042C70.76 61.904 71.058 62.31 71.838 63.382L74.224 66.66C74.874 67.554 75.91 67.084 75.724 66.654C74.886 64.732 74.52 63.206 74.628 62.344C74.644 62.188 74.778 62.24 74.964 61.946Z" fill="#263238"/>
<path d="M75.534 63.884C75.642 63.92 75.76 63.902 75.854 63.836C75.908 63.806 75.94 63.748 75.936 63.688C75.932 63.352 74.872 62.766 74.752 62.702C74.74 62.694 74.724 62.692 74.71 62.696C74.684 62.704 74.67 62.73 74.676 62.756C74.782 63.012 74.916 63.254 75.074 63.482C75.18 63.662 75.342 63.802 75.534 63.884ZM75.828 63.68C75.828 63.706 75.816 63.73 75.792 63.742C75.722 63.786 75.638 63.8 75.56 63.778C75.262 63.686 74.974 63.152 74.832 62.856C75.262 63.106 75.826 63.496 75.83 63.682L75.828 63.68Z" fill="#FF1867"/>
<path d="M74.69 62.792C74.994 62.978 75.838 63.216 76.048 63.018C76.094 62.978 76.126 62.902 76.054 62.77C75.756 62.244 74.732 62.67 74.694 62.698C74.676 62.704 74.662 62.72 74.66 62.74C74.664 62.752 74.67 62.76 74.68 62.768L74.688 62.794L74.69 62.792ZM75.97 62.806C76.026 62.902 75.994 62.926 75.982 62.934C75.86 63.062 75.202 62.922 74.838 62.744C75.086 62.656 75.724 62.464 75.948 62.772L75.97 62.806Z" fill="#FF1867"/>
<path d="M74.774 62.888C74.76 62.888 74.748 62.882 74.738 62.872C74.536 62.662 74.242 62.548 73.952 62.568C73.924 62.572 73.9 62.548 73.898 62.522C73.898 62.494 73.916 62.47 73.944 62.468C74.264 62.444 74.588 62.572 74.81 62.804C74.83 62.824 74.828 62.856 74.81 62.874C74.8 62.884 74.788 62.888 74.776 62.888H74.774Z" fill="#FF1867"/>
<path d="M74.764 63.5699C74.75 63.5699 74.738 63.5639 74.728 63.5539C74.526 63.3439 74.232 63.2299 73.942 63.2499C73.918 63.2539 73.89 63.2319 73.888 63.2039C73.886 63.1759 73.908 63.1519 73.934 63.1499C74.254 63.1279 74.578 63.2539 74.8 63.4859C74.82 63.5059 74.818 63.5379 74.8 63.5559C74.79 63.5659 74.778 63.5699 74.766 63.5699H74.764Z" fill="#FF1867"/>
<path d="M74.884 64.32C74.87 64.32 74.858 64.314 74.848 64.304C74.646 64.094 74.352 63.98 74.062 64C74.038 64.004 74.01 63.982 74.008 63.954C74.008 63.926 74.026 63.902 74.054 63.9C74.374 63.876 74.698 64.004 74.92 64.236C74.94 64.256 74.938 64.288 74.92 64.306C74.91 64.316 74.898 64.32 74.886 64.32H74.884Z" fill="#FF1867"/>
<path d="M85.602 59.612C85.602 59.612 71.244 51.574 66.312 51.422C61.38 51.27 60.822 54.99 62.636 57.856C64.45 60.72 69.002 59.332 69.002 59.332C69.002 59.332 65.402 58.42 65.848 57.444C66.294 56.468 67.624 57.982 67.624 57.982C67.624 57.982 76.348 61.564 84.132 62.834L85.604 59.612H85.602Z" fill="#263238"/>
<path opacity="0.2" d="M78.204 55.6319L82.826 58.2999L83.314 58.2479L78.938 55.4919L78.204 55.6319Z" fill="black"/>
<path opacity="0.2" d="M70.87 59.21C70.87 59.21 66.212 57.362 66.264 57.362C66.316 57.362 69.2 59.524 70.144 59.514L70.87 59.21Z" fill="black"/>
<path d="M71.858 34.05C71.858 34.05 72.42 33.92 74.48 36.322C75.878 37.952 78.002 39.152 78.002 39.152C78.184 38.76 81.394 34.05 81.394 34.05L83.436 35.21C83.436 35.21 80.438 42.962 78.488 43.268C76.538 43.572 71.994 39.654 71.994 39.654L71.856 34.052L71.858 34.05Z" fill="#FF1867"/>
<path d="M60.65 36.9C61.538 39.568 61.58 45.596 61.266 48.926H72.252C73.984 42.282 72.484 37.558 72.336 36.002C72.152 34.108 71.86 34.036 71.86 34.036C71.86 34.036 69.806 33.836 68.018 33.85C66.634 33.902 65.254 34.052 63.892 34.298C62.878 34.468 61.874 34.694 60.884 34.974C60.46 35.094 60.214 35.536 60.334 35.962C60.338 35.976 60.342 35.988 60.346 36.002C60.452 36.3 60.554 36.606 60.65 36.902V36.9Z" fill="#FF1867"/>
<path opacity="0.2" d="M61.264 48.926C61.526 45.824 63.538 42.246 63.222 39.15C64.156 40.478 64.466 43.084 64.846 45.994C64.97 46.942 68.41 47.9 68.572 48.88L61.264 48.926Z" fill="black"/>
<path d="M63.002 34.652C62.49 35.384 68.788 36.562 68.788 36.562C68.788 36.562 72.474 34.17 68.17 33.798C67.292 33.72 63.812 33.502 63.002 34.652Z" fill="#CD877B"/>
<path d="M68.994 37.918C68.994 37.918 72.388 35.118 70.632 33.44C68.876 31.764 60.608 31.014 61.308 34.832C61.308 34.832 62.372 34.518 63.446 35.542C65.71 37.708 68.996 37.918 68.996 37.918H68.994Z" fill="#FF1867"/>
<path opacity="0.2" d="M68.71 37.112C68.71 37.112 70.632 35.62 69.954 34.274C69.278 32.93 65.28 31.456 62.414 33.31C63.1 33.662 63.74 34.102 64.312 34.618C65.448 35.59 68.708 37.11 68.708 37.11L68.71 37.112Z" fill="black"/>
<path opacity="0.2" d="M67.98 37.302C67.98 37.408 67.896 37.496 67.79 37.496C67.684 37.496 67.596 37.412 67.596 37.306C67.596 37.2 67.68 37.112 67.786 37.112C67.786 37.112 67.79 37.112 67.792 37.112C67.896 37.112 67.98 37.198 67.982 37.302H67.98Z" fill="black"/>
<path opacity="0.2" d="M69.896 36.75C69.896 36.854 69.814 36.94 69.71 36.942H69.708C69.602 36.954 69.506 36.88 69.494 36.774C69.482 36.668 69.556 36.572 69.662 36.56C69.678 36.56 69.692 36.56 69.708 36.56C69.812 36.56 69.898 36.644 69.898 36.75H69.896Z" fill="black"/>
<path d="M71.68 38.672C71.68 38.778 71.596 38.866 71.49 38.866C71.384 38.866 71.296 38.782 71.296 38.676C71.296 38.57 71.38 38.482 71.486 38.482H71.488C71.594 38.482 71.678 38.566 71.68 38.672Z" fill="#263238"/>
<path d="M67.546 39.652C67.546 39.756 67.462 39.842 67.356 39.842C67.252 39.842 67.166 39.758 67.166 39.652C67.166 39.546 67.25 39.462 67.356 39.462C67.46 39.462 67.546 39.546 67.546 39.652Z" fill="#263238"/>
<path d="M71.444 38.752C71.444 38.752 70.7 38.652 70.572 37.702C70.556 37.242 70.18 36.878 69.72 36.88C69.682 36.88 69.648 36.852 69.648 36.814C69.644 36.778 69.672 36.744 69.71 36.742H69.716C70.244 36.742 70.682 37.154 70.712 37.682C70.824 38.518 71.456 38.612 71.46 38.614C71.498 38.618 71.524 38.652 71.522 38.69C71.516 38.728 71.482 38.754 71.444 38.752Z" fill="#263238"/>
<path d="M67.356 39.652C67.318 39.652 67.288 39.622 67.286 39.586C67.27 39.098 67.45 38.622 67.784 38.266C67.916 38.15 67.992 37.986 67.998 37.812C67.984 37.638 67.908 37.472 67.786 37.348C67.754 37.326 67.748 37.282 67.77 37.25C67.792 37.218 67.836 37.212 67.868 37.234C67.874 37.238 67.878 37.242 67.882 37.248C68.032 37.396 68.124 37.594 68.138 37.804C68.134 38.016 68.042 38.218 67.884 38.36C67.58 38.688 67.414 39.124 67.424 39.572C67.424 39.61 67.398 39.642 67.36 39.648L67.354 39.654L67.356 39.652Z" fill="#263238"/>
<path d="M74.74 54.0459L75.292 54.1459C75.292 54.1459 75.138 53.6499 77.096 52.9999C79.054 52.3499 81.002 51.9979 81.002 51.9979C81.002 51.9979 77.464 51.8199 77.372 51.8199C77.28 51.8199 74.006 52.9819 74.006 52.9819L74.74 54.0439V54.0459Z" fill="#FF1867"/>
<path d="M73.34 50.434C73.438 50.434 81.004 51.998 81.004 51.998C81.004 51.998 75.744 51.806 74.742 54.046L68.618 51.532C68.618 51.532 70.334 50.39 73.34 50.436V50.434Z" fill="#EBEBEB"/>
<path d="M86.098 50.434V50.764C86.098 50.764 82.7 50.37 81.002 52L80.91 51.218L83.162 50.184L86.098 50.434Z" fill="#FF1867"/>
<path d="M79.224 48.906C79.224 48.906 75.12 47.82 73.61 50.486L81.002 52C81.002 52 81.344 49.968 86.098 50.434L79.224 48.906Z" fill="#EBEBEB"/>
<path d="M60.558 35.144C60.384 35.206 59.258 36.148 59.312 38.356C59.392 41.592 60.188 48.296 60.558 48.926C60.928 49.556 70.722 52.3 70.868 52.46C71.014 52.62 71.522 50.75 71.522 50.75L63.98 45.966C63.98 45.966 63.534 39.226 63.356 38.216C63.178 37.206 62.664 34.388 60.558 35.144Z" fill="#FF1867"/>
<path d="M71.436 51.056L71.858 51.246C71.858 51.246 73.854 51.088 74.36 51.592C74.866 52.096 75.15 54.398 75.15 54.398L70.868 52.46L71.436 51.056Z" fill="#EEC1BB"/>
<path d="M64.528 34.868C64.528 34.868 65.438 35.47 66.722 36.25C66.99 36.412 68.354 37.014 68.652 37.112L69.204 36.638C69.232 36.554 69.248 36.464 69.256 36.372C69.312 35.752 69.11 34.928 68.566 34.626C67.952 34.286 67.63 33.96 67.632 33.36C67.628 33.02 67.692 32.66 67.776 32.304L67.088 32.032L64.486 30.154C64.97 31.49 65.566 33.856 64.528 34.866V34.868Z" fill="#EEC1BB"/>
<path opacity="0.2" d="M67.634 33.492C66.96 33.23 66.184 32.712 66.144 31.976C66.13 31.666 66.146 31.368 66.19 31.172L67.708 32.612C67.65 32.894 67.642 33.076 67.634 33.49V33.492Z" fill="black"/>
<path d="M63.632 27.692C64.222 29.946 64.424 30.91 65.806 31.914C67.884 33.424 70.516 32.362 70.608 30.014C70.692 27.902 69.712 24.57 67.304 23.982C64.932 23.402 63.04 25.438 63.632 27.692Z" fill="#EEC1BB"/>
<path d="M66.842 27.93C66.894 28.17 67.058 28.348 67.208 28.326C67.36 28.304 67.44 28.092 67.388 27.852C67.336 27.612 67.172 27.434 67.022 27.456C66.87 27.478 66.79 27.69 66.842 27.93Z" fill="#263238"/>
<path d="M69.164 27.53C69.214 27.762 69.378 27.934 69.528 27.912C69.678 27.89 69.76 27.684 69.71 27.45C69.66 27.218 69.496 27.046 69.346 27.068C69.196 27.09 69.114 27.296 69.164 27.53Z" fill="#263238"/>
<path d="M66.102 27.18C66.132 27.18 66.16 27.166 66.18 27.14C66.478 26.754 66.894 26.804 66.9 26.804C66.962 26.812 67.016 26.768 67.02 26.706C67.024 26.644 66.976 26.588 66.912 26.578C66.89 26.576 66.368 26.514 65.998 26.992C65.962 27.04 65.972 27.112 66.022 27.152C66.046 27.172 66.076 27.18 66.104 27.178L66.102 27.18Z" fill="#263238"/>
<path d="M69.546 26.286C69.568 26.274 69.584 26.254 69.59 26.228C69.602 26.172 69.566 26.112 69.508 26.09C68.936 25.882 68.586 26.172 68.57 26.184C68.528 26.22 68.528 26.286 68.57 26.334C68.612 26.382 68.678 26.392 68.72 26.356C68.734 26.344 69.01 26.126 69.464 26.29C69.494 26.3 69.522 26.298 69.546 26.286Z" fill="#263238"/>
<path d="M68.344 27.552C68.344 27.552 68.844 28.35 69.338 28.816C69.424 28.898 69.404 29.042 69.3 29.1C69.034 29.252 68.688 29.212 68.688 29.212L68.344 27.552Z" fill="#D4827D"/>
<path d="M66.938 27.48L67.442 27.268C67.442 27.268 67.22 27.708 66.938 27.48Z" fill="#263238"/>
<path d="M69.268 27.092L69.772 26.88C69.772 26.88 69.55 27.32 69.268 27.092Z" fill="#263238"/>
<path d="M64.614 30.69C56.94 25.938 65.518 22.71 65.518 22.71C68.964 20.296 69.084 23.966 69.084 23.966C70.81 25.768 68.366 27.344 68.366 27.344C69.396 25.862 67.802 24.978 67.802 24.978C68.046 26.948 66.126 27.72 66.126 27.72C66.878 25.944 66.398 25.024 66.398 25.024C65.848 28.19 64.264 28.826 64.264 28.826L64.614 30.69Z" fill="#263238"/>
<path d="M63.25 29.674C63.598 30.098 64.086 30.32 64.506 30.354C65.138 30.406 65.288 29.378 64.98 28.806C64.702 28.29 64.048 28.028 63.478 28.246C62.916 28.46 62.852 29.19 63.25 29.674Z" fill="#EEC1BB"/>
<path opacity="0.2" d="M64.764 29.36C64.742 29.36 64.722 29.344 64.716 29.322C64.67 29.142 64.576 28.974 64.442 28.84C64.356 28.752 64.216 28.644 64.044 28.626C63.888 28.61 63.732 28.682 63.672 28.8C63.66 28.824 63.63 28.834 63.604 28.822C63.58 28.81 63.57 28.78 63.582 28.754C63.662 28.6 63.856 28.504 64.054 28.526C64.256 28.548 64.416 28.67 64.514 28.77C64.66 28.918 64.762 29.1 64.812 29.298C64.818 29.324 64.802 29.352 64.776 29.358C64.772 29.358 64.768 29.358 64.764 29.358V29.36Z" fill="black"/>
<path d="M68.648 30.042C68.476 30.264 68.318 30.5 68.18 30.746C68.134 30.73 68.086 30.712 68.04 30.694C67.41 30.454 67.194 30.134 67.152 29.852C67.134 29.714 67.148 29.572 67.194 29.44C67.218 29.366 67.252 29.294 67.296 29.228C67.554 29.556 68.124 29.824 68.434 29.956C68.57 30.006 68.648 30.042 68.648 30.042Z" fill="#263238"/>
<path d="M68.444 29.952L68.3 30.156C67.708 29.928 67.322 29.692 67.204 29.436C67.228 29.362 67.262 29.29 67.306 29.224C67.566 29.554 68.134 29.82 68.444 29.952Z" fill="white"/>
<path d="M68.048 30.69C67.418 30.45 67.202 30.13 67.16 29.848C67.398 29.944 67.618 30.08 67.808 30.252C67.932 30.37 68.016 30.522 68.048 30.688V30.69Z" fill="#C15854"/>
<path d="M51.846 77.888L54.416 82.588L56.66 81.92L54.622 76.466L51.846 77.888Z" fill="#895555"/>
<path d="M54.99 85.12L56.594 84.778C56.594 84.778 56.686 84.45 57.024 84.368C57.214 84.322 57.718 84.492 57.718 84.492L62.138 83.586C62.138 83.586 62.076 83.282 62 83.162C61.908 83.014 61.81 82.894 61.71 82.794C61.36 82.45 60.826 82.38 60.428 82.342C59.762 82.278 57.842 81.77 57.842 81.77C57.842 81.77 57.344 81.592 56.932 81.026C56.702 80.712 56.396 80.552 56.2 80.568C55.8 80.598 55.632 80.874 55.652 81.248L55.676 81.682C55.426 81.976 55.032 82.044 54.67 81.826C54.67 81.826 53.74 81.51 53.874 81.916C53.95 82.148 54.33 83.174 54.606 83.992C54.67 84.182 54.732 84.364 54.784 84.522C54.902 84.874 54.984 85.116 54.984 85.116L54.99 85.12Z" fill="#263238"/>
<path d="M58.872 82.006C58.848 81.992 58.818 81.996 58.798 82.016C58.706 82.104 58.638 82.214 58.602 82.344C58.584 82.412 58.692 82.45 58.71 82.382C58.742 82.268 58.802 82.17 58.882 82.094C58.908 82.068 58.906 82.028 58.874 82.008L58.872 82.006Z" fill="#FF1867"/>
<path d="M58.494 81.892C58.47 81.878 58.44 81.882 58.42 81.902C58.328 81.99 58.26 82.1 58.224 82.23C58.206 82.298 58.314 82.336 58.332 82.268C58.364 82.154 58.424 82.056 58.504 81.98C58.53 81.954 58.528 81.914 58.496 81.894L58.494 81.892Z" fill="#FF1867"/>
<path d="M58.106 81.794C58.082 81.78 58.052 81.784 58.032 81.804C57.94 81.892 57.872 82.002 57.836 82.132C57.818 82.2 57.926 82.238 57.944 82.17C57.976 82.056 58.036 81.958 58.116 81.882C58.142 81.856 58.14 81.816 58.108 81.796L58.106 81.794Z" fill="#FF1867"/>
<path opacity="0.2" d="M57.024 84.368C57.214 84.322 57.718 84.492 57.718 84.492L62.138 83.586C62.138 83.586 62.076 83.282 62 83.162C61.958 83.094 61.914 83.034 61.87 82.976L54.758 84.436C54.768 84.464 54.778 84.496 54.788 84.524C54.906 84.876 54.988 85.118 54.988 85.118L56.592 84.776C56.592 84.776 56.684 84.448 57.022 84.366L57.024 84.368Z" fill="white"/>
<path d="M58.066 81.906L58.052 81.86C58.008 81.71 57.962 81.556 57.944 81.398C57.924 81.218 57.944 81.058 58.002 80.922C58.044 80.828 58.104 80.772 58.172 80.762C58.262 80.75 58.34 80.818 58.382 80.886C58.458 81.01 58.478 81.172 58.436 81.334C58.396 81.492 58.164 81.784 58.094 81.868L58.064 81.904L58.066 81.906ZM58.194 80.812C58.194 80.812 58.184 80.812 58.18 80.812C58.11 80.822 58.068 80.898 58.048 80.942C57.992 81.068 57.974 81.22 57.994 81.392C58.01 81.53 58.048 81.668 58.088 81.8C58.22 81.634 58.362 81.432 58.39 81.322C58.428 81.174 58.41 81.024 58.342 80.914C58.31 80.862 58.256 80.812 58.196 80.812H58.194Z" fill="#FF1867"/>
<path d="M58.016 81.882C57.874 81.882 57.56 81.874 57.426 81.814C57.274 81.746 57.16 81.628 57.112 81.492C57.086 81.416 57.08 81.312 57.146 81.25C57.196 81.202 57.278 81.19 57.378 81.216C57.52 81.254 57.656 81.338 57.786 81.468C57.898 81.582 57.99 81.714 58.078 81.842L58.104 81.88H58.056C58.044 81.88 58.03 81.88 58.014 81.88L58.016 81.882ZM57.28 81.252C57.244 81.252 57.208 81.26 57.18 81.286C57.13 81.332 57.136 81.414 57.158 81.476C57.202 81.6 57.306 81.706 57.446 81.77C57.55 81.816 57.796 81.834 58.008 81.834C57.928 81.72 57.846 81.604 57.748 81.506C57.626 81.384 57.496 81.302 57.364 81.268C57.342 81.262 57.312 81.256 57.28 81.256V81.252Z" fill="#FF1867"/>
<path d="M41.222 81.334L40.048 86.562L42.174 87.542L44.244 82.1L41.222 81.334Z" fill="#895555"/>
<path d="M38.806 88.842L40.236 89.646C40.236 89.646 40.522 89.46 40.83 89.622C41.004 89.712 41.27 90.174 41.27 90.174L45.186 92.412C45.186 92.412 45.34 92.144 45.364 92.002C45.392 91.83 45.4 91.676 45.39 91.536C45.354 91.046 45 90.64 44.726 90.35C44.268 89.864 43.162 88.212 43.162 88.212C43.162 88.212 42.906 87.748 42.97 87.052C43.006 86.664 42.88 86.344 42.722 86.224C42.4 85.982 42.092 86.078 41.862 86.374L41.594 86.716C41.212 86.772 40.87 86.564 40.744 86.16C40.744 86.16 40.254 85.308 40.086 85.702C39.99 85.926 39.598 86.948 39.264 87.746C39.186 87.932 39.112 88.108 39.048 88.262C38.904 88.604 38.806 88.84 38.806 88.84V88.842Z" fill="#263238"/>
<path d="M43.778 89.066C43.77 89.04 43.744 89.024 43.716 89.024C43.59 89.03 43.464 89.068 43.352 89.14C43.294 89.178 43.35 89.278 43.408 89.24C43.508 89.176 43.618 89.142 43.728 89.136C43.766 89.136 43.79 89.102 43.778 89.066Z" fill="#FF1867"/>
<path d="M43.568 88.732C43.56 88.706 43.534 88.69 43.506 88.69C43.38 88.696 43.254 88.734 43.142 88.806C43.084 88.844 43.14 88.944 43.198 88.906C43.298 88.842 43.406 88.808 43.518 88.802C43.556 88.802 43.58 88.768 43.568 88.732Z" fill="#FF1867"/>
<path d="M43.344 88.402C43.336 88.376 43.31 88.36 43.282 88.36C43.156 88.366 43.03 88.404 42.918 88.476C42.86 88.514 42.916 88.614 42.974 88.576C43.074 88.512 43.182 88.478 43.294 88.472C43.332 88.472 43.356 88.438 43.344 88.402Z" fill="#FF1867"/>
<path opacity="0.2" d="M40.83 89.622C41.004 89.712 41.27 90.174 41.27 90.174L45.186 92.412C45.186 92.412 45.34 92.144 45.364 92.002C45.376 91.922 45.384 91.848 45.388 91.776L39.082 88.176C39.07 88.204 39.058 88.236 39.046 88.262C38.902 88.604 38.804 88.84 38.804 88.84L40.234 89.644C40.234 89.644 40.52 89.458 40.828 89.62L40.83 89.622Z" fill="white"/>
<path d="M43.238 88.458L43.258 88.416C43.324 88.274 43.39 88.128 43.482 87.998C43.586 87.848 43.706 87.742 43.84 87.68C43.932 87.638 44.016 87.634 44.074 87.672C44.15 87.722 44.164 87.826 44.15 87.904C44.126 88.046 44.034 88.182 43.896 88.276C43.76 88.368 43.394 88.434 43.286 88.452L43.24 88.46L43.238 88.458ZM43.976 87.694C43.932 87.694 43.888 87.71 43.86 87.724C43.734 87.782 43.622 87.884 43.522 88.026C43.442 88.14 43.38 88.268 43.322 88.394C43.532 88.356 43.772 88.298 43.866 88.234C43.992 88.148 44.078 88.024 44.1 87.896C44.11 87.832 44.102 87.75 44.046 87.714C44.026 87.7 44.002 87.696 43.978 87.696L43.976 87.694Z" fill="#FF1867"/>
<path d="M43.284 88.466L43.248 88.436C43.164 88.364 42.886 88.118 42.818 87.968C42.75 87.816 42.74 87.652 42.794 87.518C42.824 87.444 42.888 87.362 42.98 87.36H42.986C43.054 87.36 43.122 87.406 43.176 87.488C43.258 87.61 43.304 87.764 43.316 87.946C43.326 88.106 43.308 88.266 43.288 88.42L43.282 88.466H43.284ZM42.986 87.408H42.982C42.914 87.41 42.864 87.476 42.84 87.536C42.792 87.658 42.8 87.808 42.862 87.946C42.908 88.05 43.084 88.224 43.242 88.366C43.258 88.228 43.272 88.086 43.264 87.948C43.254 87.776 43.21 87.63 43.134 87.514C43.108 87.474 43.054 87.408 42.986 87.408Z" fill="#FF1867"/>
<path d="M43.274 47.182C43.274 47.182 44.016 53.786 44.214 54.14C44.884 55.338 49.326 57.392 49.326 57.392L51.59 56.918L53.212 58.272L52.142 59.11L50.886 58.636C50.202 58.758 49.506 58.82 48.81 58.818C47.64 58.818 42 57.388 41.06 55.816C40.118 54.244 39.686 46.962 39.686 46.962L43.274 47.182Z" fill="#895555"/>
<path d="M39.592 49.778C39.592 49.778 37.852 43.978 40.02 42.368C42.188 40.758 43.912 48.732 43.912 48.732L39.592 49.778Z" fill="#FF1867"/>
<path d="M40.964 60.386L40.948 52.7L40.782 42.176L36.458 41.558L32.774 41.524L27.79 43.074L27.686 45.656C27.686 45.656 28.2 57.514 28.172 57.872C28.136 58.31 28.026 61.564 28.026 61.564C33.708 62.858 41.054 60.78 40.964 60.388V60.386Z" fill="#FF1867"/>
<path opacity="0.2" d="M40.884 49.466L40.652 44.508L41.76 49.254L40.884 49.466Z" fill="black"/>
<path opacity="0.2" d="M31.27 50.188C31.41 50.16 32.118 49.928 32.118 49.928L30.544 45.548L32.706 50.392L31.406 50.91L31.27 50.186V50.188Z" fill="black"/>
<path d="M30.66 46.556C30.66 46.556 31.762 53.888 32.398 54.572C33.474 55.73 38.8 58.802 38.8 58.802L41.458 57.87C41.644 57.808 41.85 57.842 42.002 57.958L43.82 59.346L43.646 59.492C43.572 59.556 43.462 59.568 43.374 59.524L43.092 59.384L43.408 59.694L43.308 59.778C43.208 59.862 43.07 59.892 42.942 59.858L42.13 59.64L42.88 60.14C42.712 60.282 42.48 60.33 42.266 60.27L41.076 59.932C40.264 60.118 39.438 60.236 38.606 60.286C37.206 60.372 30.594 58.062 29.36 56.37C28.128 54.678 26.856 47.654 26.856 47.654L30.656 46.558L30.66 46.556Z" fill="#895555"/>
<path d="M27.142 51.432C27.142 51.432 25.494 44.788 27.662 43.178C29.83 41.568 31.978 49.974 31.978 49.974L27.142 51.432Z" fill="#FF1867"/>
<path d="M44.888 59.878H36.46C36.462 60.202 36.822 60.462 37.262 60.46H50.992C51.43 60.456 51.782 60.196 51.78 59.878H44.888Z" fill="#263238"/>
<path d="M51.118 60.428H43.418C43.286 60.428 43.178 60.34 43.18 60.234C43.18 60.214 43.184 60.194 43.192 60.176L46.618 52.322C46.704 52.098 46.962 51.944 47.254 51.944H54.958C55.088 51.944 55.194 52.028 55.194 52.134C55.194 52.156 55.19 52.178 55.18 52.198L51.754 60.052C51.666 60.276 51.41 60.428 51.118 60.43V60.428Z" fill="#263238"/>
<path opacity="0.7" d="M54.958 51.942H47.254C46.962 51.942 46.704 52.096 46.618 52.32L43.322 59.878H36.46C36.462 60.202 36.822 60.462 37.262 60.46H50.992C51.13 60.46 51.258 60.43 51.372 60.384C51.552 60.324 51.694 60.204 51.756 60.048L55.182 52.194C55.192 52.174 55.196 52.152 55.196 52.13C55.196 52.026 55.09 51.94 54.96 51.94L54.958 51.942Z" fill="white"/>
<path d="M50.33 56.124C50.164 56.5 49.826 56.76 49.574 56.706C49.322 56.652 49.256 56.31 49.416 55.932C49.578 55.554 49.918 55.302 50.17 55.354C50.422 55.406 50.496 55.736 50.328 56.124H50.33Z" fill="white"/>
<g opacity="0.3">
<path d="M46.616 52.322L43.32 59.88H43.676L47.252 51.944C46.96 51.944 46.702 52.098 46.616 52.322Z" fill="black"/>
</g>
<path d="M38.71 32.404L38.954 32.546C39.238 32.552 39.506 32.766 39.572 33.044C39.638 33.32 39.498 33.634 39.248 33.77C39.21 33.79 39.166 33.812 39.154 33.852C39.132 33.918 39.202 33.972 39.252 34.018C39.508 34.24 39.476 34.678 39.246 34.926C39.016 35.174 38.65 35.254 38.314 35.226C38.226 34.274 38.792 33.354 38.71 32.404Z" fill="#263238"/>
<path d="M31.468 35.082C31.106 35.1 30.744 34.876 30.598 34.544C30.558 34.452 30.532 34.35 30.548 34.252C30.594 33.984 30.9 33.862 31.162 33.788C30.87 33.716 30.674 33.426 30.618 33.132C30.592 32.998 30.59 32.854 30.634 32.724C30.708 32.504 30.904 32.344 31.118 32.258C31.332 32.172 31.566 32.148 31.796 32.126L33.122 36.334C32.826 36.4 32.518 36.44 32.22 36.39C31.92 36.34 31.628 36.186 31.462 35.934C31.296 35.68 31.28 35.32 31.468 35.082Z" fill="#263238"/>
<path d="M32.21 41.7C33.434 40.656 33.376 37.76 33.156 36.186L36.646 39.21C36.562 39.388 36.49 39.572 36.432 39.76C36.314 40.096 36.284 40.456 36.346 40.806C36.408 41.096 36.732 41.902 36.732 41.902C36.732 41.902 36.906 42.804 34.534 42.76C33.49 42.854 32.214 41.7 32.214 41.7H32.21Z" fill="#895555"/>
<path opacity="0.2" d="M33.782 37.788C33.574 39.626 35.414 40.516 36.346 40.81C36.284 40.46 36.314 40.1 36.432 39.764L33.782 37.788Z" fill="black"/>
<path d="M32.558 34.8119C32.988 36.9839 33.186 38.2159 34.476 39.1839C36.414 40.6379 39.004 39.3119 39.252 37.0499C39.474 35.0139 38.732 31.8059 36.408 31.2399C34.118 30.6819 32.128 32.6419 32.558 34.8139V34.8119Z" fill="#895555"/>
<path d="M31.922 32.216C32.07 30.97 35.18 30.558 36.132 31.062C36.274 31.138 34.552 32.274 34.658 32.22L33.83 32.624C33.692 32.612 33.45 32.798 33.368 33.218C33.368 33.218 33.916 36.562 33.066 37.66C32.23 37.388 32.006 36.064 31.652 35.304C31.124 34.172 30.448 32.5 31.924 32.218L31.922 32.216Z" fill="#263238"/>
<path d="M31.912 36.752C32.168 37.292 32.656 37.664 33.132 37.824C33.848 38.062 34.004 37.316 33.848 36.634C33.708 36.02 33.42 35.288 32.682 35.346C31.954 35.402 31.62 36.136 31.912 36.754V36.752Z" fill="#895555"/>
<path d="M35.59 34.922C35.62 35.146 35.766 35.31 35.918 35.29C36.068 35.27 36.166 35.07 36.136 34.846C36.106 34.622 35.96 34.458 35.808 34.478C35.658 34.498 35.56 34.698 35.59 34.922Z" fill="#263238"/>
<path d="M37.858 34.792C37.888 35.016 38.034 35.18 38.186 35.16C38.338 35.14 38.434 34.94 38.404 34.716C38.374 34.492 38.228 34.328 38.076 34.348C37.926 34.368 37.828 34.568 37.858 34.792Z" fill="#263238"/>
<path d="M37.384 34.754C37.384 34.754 38.262 35.774 38.558 36.196C38.274 36.518 37.704 36.46 37.704 36.46L37.384 34.754Z" fill="#6D3939"/>
<path d="M35.164 34.046C35.2 34.056 35.242 34.046 35.27 34.018C35.612 33.68 36.006 33.75 36.01 33.75C36.068 33.762 36.126 33.724 36.138 33.666C36.15 33.608 36.112 33.554 36.054 33.542C36.034 33.538 35.54 33.45 35.114 33.87C35.072 33.912 35.072 33.978 35.114 34.02C35.128 34.034 35.144 34.042 35.162 34.046H35.164Z" fill="#263238"/>
<path opacity="0.2" d="M33.462 36.654C33.44 36.654 33.42 36.638 33.414 36.616C33.368 36.438 33.276 36.276 33.146 36.144C33.062 36.058 32.924 35.952 32.756 35.934C32.604 35.918 32.45 35.99 32.392 36.104C32.38 36.128 32.35 36.138 32.324 36.126C32.3 36.114 32.29 36.084 32.302 36.058C32.38 35.906 32.572 35.814 32.766 35.834C32.966 35.856 33.122 35.976 33.218 36.074C33.36 36.218 33.462 36.398 33.512 36.592C33.518 36.618 33.502 36.646 33.476 36.652C33.472 36.652 33.468 36.652 33.464 36.652L33.462 36.654Z" fill="black"/>
<path d="M39.008 33.71C39.028 33.704 39.046 33.69 39.058 33.674C39.094 33.628 39.086 33.56 39.038 33.526C38.56 33.174 38.09 33.342 38.068 33.346C38.012 33.366 37.982 33.428 38.002 33.482C38.022 33.536 38.084 33.564 38.14 33.546C38.16 33.538 38.524 33.414 38.908 33.696C38.938 33.718 38.976 33.722 39.01 33.71H39.008Z" fill="#263238"/>
<path d="M31.192 31.224C31.306 30.696 31.97 30.508 32.496 30.554C32.4 29.936 33.19 29.486 33.714 29.444C34.262 29.4 34.482 29.59 34.482 29.59C34.44 29.604 34.612 29.264 34.726 29.124C35.146 28.608 35.878 28.386 36.506 28.58C37.134 28.776 37.622 29.378 37.694 30.046C37.994 29.674 38.6 29.618 38.96 29.932C39.32 30.246 39.364 30.868 39.052 31.23C39.454 31.21 39.836 31.582 39.836 31.994C39.836 32.408 39.452 32.776 39.05 32.752C39.078 33.214 39.094 33.792 39.122 34.254L38.298 32.638C37.96 32.562 37.882 32.424 37.776 32.088C37.588 32.548 37.208 32.554 36.722 32.59C36.236 32.626 35.74 32.362 35.488 31.934C35.29 32.414 34.854 32.81 34.346 32.854C33.838 32.898 33.3 32.52 33.242 32C32.994 32.476 32.38 32.712 31.886 32.524C31.392 32.336 31.078 31.746 31.192 31.218V31.224Z" fill="#263238"/>
<path d="M37.62 37.204C37.432 37.446 37.264 37.7 37.114 37.966C37.064 37.948 37.012 37.93 36.962 37.91C36.28 37.65 36.048 37.304 36 37C35.98 36.85 35.996 36.698 36.044 36.554C36.07 36.472 36.108 36.396 36.154 36.324C36.434 36.678 37.05 36.97 37.386 37.112C37.534 37.166 37.616 37.206 37.616 37.206L37.62 37.204Z" fill="#263238"/>
<path d="M37.396 37.106L37.24 37.326C36.6 37.08 36.18 36.822 36.052 36.548C36.078 36.466 36.116 36.39 36.162 36.318C36.444 36.676 37.058 36.964 37.394 37.106H37.396Z" fill="white"/>
<path d="M36.97 37.904C36.288 37.644 36.056 37.298 36.008 36.994C36.266 37.098 36.502 37.246 36.708 37.432C36.842 37.558 36.932 37.724 36.968 37.904H36.97Z" fill="#C15854"/>
<path d="M49.512 67.864C49.428 68.702 49.246 69.848 49.028 70.66C48.434 72.956 47.756 75.164 46.902 77.446C45.252 81.952 43.92 86.134 43.92 86.134L39.73 84.878C39.73 84.878 42.5 71.84 44.368 70.506H32.912C32.698 70.506 32.484 70.492 32.272 70.462C34.246 70.206 37.32 68.99 40.174 67.774C42.694 66.696 45.052 65.62 46.33 65.214C47.894 65.882 49.634 66.55 49.514 67.864H49.512Z" fill="#263238"/>
<path opacity="0.6" d="M46.332 65.226C45.052 65.642 42.694 66.7099 40.176 67.7859C37.322 69.0019 34.248 70.218 32.274 70.474C28.95 70.03 27.7 66.07 31.176 61.502C33.432 61.502 35.7 63.656 35.7 63.656C35.7 63.656 42.522 63.622 46.332 65.226Z" fill="black"/>
<path d="M55.66 79.256L52.89 80.934C52.89 80.934 50.578 76.08 48.368 70.604C48.586 69.79 48.74 68.962 48.824 68.124C48.944 66.81 47.9 65.884 46.336 65.23C45.056 65.646 42.698 66.714 40.18 67.79C37.326 69.006 34.252 70.222 32.278 70.478C32.052 70.508 31.824 70.524 31.594 70.528C27.802 70.528 26.494 67.204 28.024 61.564C30.28 61.564 34.144 61.32 34.144 61.32C34.144 61.32 41.6 59.528 46.964 60.138C49.576 60.446 51.69 62.404 52.196 64.986C53.578 71.832 55.658 79.256 55.658 79.256H55.66Z" fill="#263238"/>
<path d="M56.098 79.46L52.89 80.934C52.89 80.934 50.578 76.08 48.368 70.604C48.586 69.79 48.74 68.962 48.824 68.124C48.944 66.81 47.9 65.884 46.336 65.23C45.056 65.646 42.698 66.714 40.18 67.79C37.326 69.006 34.252 70.222 32.278 70.478C32.052 70.508 31.824 70.524 31.594 70.528C27.802 70.528 26.494 67.204 28.024 61.564C30.28 61.564 34.144 61.32 34.144 61.32C34.144 61.32 41.6 59.528 46.964 60.138C49.576 60.446 51.69 62.404 52.196 64.986C53.578 71.832 56.096 79.46 56.096 79.46H56.098Z" fill="#263238"/>
<path opacity="0.2" d="M49.512 67.864C49.428 68.702 49.246 69.848 49.028 70.66C48.434 72.956 47.756 75.164 46.902 77.446C45.252 81.952 43.92 86.134 43.92 86.134L39.73 84.878C39.73 84.878 42.5 71.84 44.368 70.506H32.912C32.698 70.506 32.484 70.492 32.272 70.462C34.246 70.206 37.32 68.99 40.174 67.774C42.694 66.696 45.052 65.62 46.33 65.214C47.894 65.882 49.634 66.55 49.514 67.864H49.512Z" fill="black"/>
<path d="M36.732 54.08C37.2942 54.08 37.75 52.6267 37.75 50.834C37.75 49.0413 37.2942 47.588 36.732 47.588C36.1698 47.588 35.714 49.0413 35.714 50.834C35.714 52.6267 36.1698 54.08 36.732 54.08Z" fill="white"/>
</svg>
