<svg width="1139" height="340" viewBox="0 0 1139 340" fill="none" xmlns="http://www.w3.org/2000/svg">
<g clip-path="url(#clip0_263_14089)">
<rect width="1139" height="340" fill="#3440D1"/>
<path opacity="0.14" d="M21 319C21 319 123.02 156.514 499.612 213.3C876.204 270.087 1008.66 245.407 1118 21" stroke="#361CC1" stroke-width="42.0919" stroke-linecap="round"/>
<path d="M-47 265.634L-46.0058 265.509C-43.6664 281.785 -35.8712 296.546 -23.4724 308.192C-4.26426 326.233 23.0732 333.759 49.6504 328.313L49.8677 329.239C22.9563 334.755 -4.72378 327.136 -24.1742 308.866C-36.7401 297.064 -44.6272 282.114 -47 265.634Z" fill="#DA5077" fill-opacity="0.3"/>
<path d="M-24.1827 202.077C7.15685 172.641 58.1557 172.641 89.4952 202.077C120.835 231.513 120.835 279.415 89.4952 308.851L88.785 308.184C119.732 279.116 119.732 231.811 88.785 202.744C57.8382 173.677 7.47434 173.677 -23.4725 202.744C-32.8217 211.526 -39.7397 222.426 -43.4576 234.26L-44.4185 233.993C-40.6504 222.01 -33.6572 210.976 -24.1827 202.077Z" fill="#DA5077" fill-opacity="0.3"/>
<path d="M15.8042 189.105C40.5517 183.58 66.0511 190.361 84.0143 207.233L82.5939 208.567C65.132 192.166 40.3344 185.574 16.2721 190.941L15.8042 189.105Z" fill="#DA5077" fill-opacity="0.3"/>
<path d="M-18.6934 207.233C-13.0622 201.944 -6.62884 197.596 0.447834 194.308L1.34182 196.003C-5.53433 199.197 -11.7922 203.427 -17.2647 208.567C-42.9897 232.73 -45.0701 270.884 -22.1106 297.323L-23.6646 298.515C-47.2925 271.332 -45.1537 232.086 -18.6934 207.233Z" fill="#DA5077" fill-opacity="0.3"/>
<path d="M-8.65875 309.267C4.78441 318.401 21.3523 322.78 37.9955 321.603C54.8141 320.41 70.6467 313.583 82.586 302.369C92.2193 293.32 98.8281 281.949 101.677 269.487C105.002 254.969 103.031 239.651 96.1211 226.357L97.9258 225.526C105.036 239.196 107.066 254.946 103.641 269.88C100.708 282.695 93.9154 294.388 83.998 303.695C71.7162 315.231 55.4323 322.254 38.1292 323.478C21.0181 324.687 3.97398 320.183 -9.85352 310.789L-8.65875 309.267Z" fill="#DA5077" fill-opacity="0.3"/>
<path d="M-4.43115 220.629C16.0218 201.418 49.2997 201.418 69.7527 220.629C78.0325 228.406 83.1959 238.262 84.6831 249.139L82.6862 249.382C81.2492 238.921 76.2863 229.449 68.324 221.971C48.6564 203.498 16.6568 203.498 -3.01081 221.971C-6.50319 225.251 -9.44415 228.963 -11.7668 233.004L-13.5381 232.11C-11.1235 227.895 -8.06557 224.042 -4.43115 220.629Z" fill="#DA5077" fill-opacity="0.3"/>
<path d="M-19.7458 253.306L-17.7323 253.384C-18.3505 266.631 -12.9783 279.595 -3.0108 288.965C4.01574 295.565 12.847 300.03 22.5387 301.882L22.1377 303.734C12.0616 301.804 2.87111 297.158 -4.43115 290.299C-14.808 280.56 -20.3892 267.078 -19.7458 253.306Z" fill="#DA5077" fill-opacity="0.3"/>
<path d="M38.3877 302.541C49.8173 301.317 60.1691 296.624 68.3236 288.973C75.4671 282.263 80.2629 273.804 82.1762 264.52L84.1479 264.881C82.1594 274.533 77.1799 283.331 69.7439 290.307C61.2636 298.272 50.5024 303.146 38.6133 304.417L38.3877 302.541Z" fill="#DA5077" fill-opacity="0.3"/>
<path d="M1.9351 226.616C6.93138 221.923 13.1141 218.416 19.8148 216.477L20.1072 217.38C13.5569 219.279 7.51623 222.7 2.63692 227.283C-10.8313 239.934 -13.672 259.615 -4.27265 275.146L-5.14992 275.608C-14.7582 259.709 -11.8506 239.565 1.9351 226.616Z" fill="#DA5077" fill-opacity="0.3"/>
<path d="M32.6479 214.665C44.253 214.665 55.1646 218.91 63.3775 226.616C80.3131 242.523 80.3131 268.412 63.3775 284.319C46.442 300.226 18.8789 300.226 1.94336 284.319L2.65353 283.652C19.1964 299.19 46.1245 299.19 62.6674 283.652C79.2102 268.114 79.2102 242.822 62.6674 227.283C54.6466 219.75 43.994 215.606 32.6563 215.606V214.665H32.6479Z" fill="#DA5077" fill-opacity="0.3"/>
<path d="M13.5486 237.524C24.0843 227.629 41.2287 227.629 51.7643 237.524C62.3 247.42 62.3 263.523 51.7643 273.419L50.344 272.085C60.0942 262.927 60.0942 248.024 50.344 238.859C40.5937 229.7 24.7276 229.7 14.9773 238.859C5.22707 248.017 5.22707 262.919 14.9773 272.077L13.557 273.411C3.013 263.516 3.013 247.42 13.5486 237.524Z" fill="#DA5077" fill-opacity="0.3"/>
<path d="M23.157 246.549C28.3956 241.629 36.9177 241.629 42.1479 246.549L41.4377 247.216C36.5918 242.665 28.7131 242.665 23.8672 247.216C19.0213 251.768 19.0213 259.168 23.8672 263.719C28.7131 268.271 36.5918 268.271 41.4377 263.719C44.128 261.193 45.4231 257.708 44.997 254.153L45.9996 254.043C46.4591 257.881 45.0554 261.656 42.1479 264.387C36.9093 269.307 28.3873 269.307 23.157 264.387C17.9268 259.466 17.9268 251.469 23.157 246.549Z" fill="#DA5077" fill-opacity="0.3"/>
<g opacity="0.3">
<path d="M171 288L184.83 304.34L198.66 288L212.49 304.34L226.32 288L240.16 304.34L254 288" stroke="url(#paint0_linear_263_14089)" stroke-width="4" stroke-miterlimit="10"/>
</g>
<g opacity="0.3">
<path d="M352.4 79.36L347.95 74.91L352.4 70.46C352.96 69.9 352.96 68.98 352.4 68.42C351.84 67.86 350.92 67.86 350.36 68.42L345.91 72.87L341.46 68.42C340.9 67.86 339.98 67.86 339.42 68.42C338.86 68.98 338.86 69.9 339.42 70.46L343.87 74.91L339.42 79.36C338.86 79.92 338.86 80.84 339.42 81.4C339.98 81.96 340.9 81.96 341.46 81.4L345.91 76.95L350.36 81.4C350.92 81.96 351.84 81.96 352.4 81.4C352.96 80.84 352.96 79.92 352.4 79.36Z" fill="#DA5077"/>
</g>
<g opacity="0.3">
<path d="M697.4 46.36L692.95 41.91L697.4 37.46C697.96 36.9 697.96 35.98 697.4 35.42C696.84 34.86 695.92 34.86 695.36 35.42L690.91 39.87L686.46 35.42C685.9 34.86 684.98 34.86 684.42 35.42C683.86 35.98 683.86 36.9 684.42 37.46L688.87 41.91L684.42 46.36C683.86 46.92 683.86 47.84 684.42 48.4C684.98 48.96 685.9 48.96 686.46 48.4L690.91 43.95L695.36 48.4C695.92 48.96 696.84 48.96 697.4 48.4C697.96 47.84 697.96 46.93 697.4 46.36Z" fill="#FFC263"/>
</g>
<g opacity="0.3">
<path d="M77.74 70.37C77.74 73.34 75.34 75.74 72.37 75.74C69.4 75.74 67 73.34 67 70.37C67 67.4 69.4 65 72.37 65C75.34 65 77.74 67.41 77.74 70.37Z" fill="#FFC263"/>
</g>
<g opacity="0.3">
<path d="M569.52 293L548 314.52H591.05L569.52 293Z" fill="#EE885E"/>
</g>
<g opacity="0.3">
<path d="M927.03 310.85L933.86 304.01L931.85 302L923 310.85L931.85 319.7L933.86 317.68L927.03 310.85Z" fill="#FF9D00"/>
<path d="M938.96 310.85L945.79 304.01L943.78 302L934.93 310.85L943.78 319.7L945.79 317.68L938.96 310.85Z" fill="#FF9D00"/>
<path d="M951.03 310.85L957.87 304.01L955.85 302L947.01 310.85L955.85 319.7L957.87 317.68L951.03 310.85Z" fill="#FF9D00"/>
<path d="M903.03 310.85L909.86 304.01L907.85 302L899 310.85L907.85 319.7L909.86 317.68L903.03 310.85Z" fill="#FF9D00"/>
<path d="M914.96 310.85L921.79 304.01L919.78 302L910.93 310.85L919.78 319.7L921.79 317.68L914.96 310.85Z" fill="#FF9D00"/>
</g>
<g opacity="0.3" clip-path="url(#clip1_263_14089)">
<path fill-rule="evenodd" clip-rule="evenodd" d="M1141.48 136.107C1142.48 135.563 1143.63 135.4 1144.92 135.778C1148.93 136.95 1150.55 140.086 1150.77 143.804C1151.09 149.232 1148.37 155.912 1145.95 159.232C1145.83 159.389 1145.61 159.423 1145.46 159.308C1145.3 159.194 1145.26 158.973 1145.38 158.816C1147.73 155.593 1150.37 149.113 1150.06 143.845C1149.86 140.431 1148.4 137.531 1144.73 136.455C1143.63 136.134 1142.66 136.275 1141.81 136.733C1142.1 137.29 1142.38 137.847 1142.63 138.405C1143.32 139.944 1144.35 144.217 1143.97 147.359C1143.69 149.613 1142.68 151.284 1140.49 151.225C1139.26 151.192 1138.38 150.431 1137.84 149.22C1137.1 147.556 1137.01 145.006 1137.54 142.562C1137.97 140.528 1138.82 138.571 1140.04 137.258C1140.3 136.97 1140.59 136.711 1140.88 136.489C1136.71 128.846 1128.94 121.699 1120.97 118.685C1120.79 118.616 1120.7 118.413 1120.77 118.231C1120.83 118.048 1121.04 117.957 1121.22 118.025C1129.32 121.089 1137.21 128.34 1141.48 136.107ZM1141.22 137.121C1141.49 137.645 1141.75 138.169 1141.98 138.694C1142.65 140.169 1143.64 144.262 1143.27 147.273C1143.04 149.121 1142.31 150.569 1140.5 150.521C1139.56 150.495 1138.9 149.87 1138.48 148.933C1138.02 147.902 1137.85 146.505 1137.92 145.016C1138.03 142.755 1138.72 140.281 1139.92 138.53C1140.3 137.975 1140.74 137.494 1141.22 137.121Z" fill="url(#paint1_linear_263_14089)"/>
<path fill-rule="evenodd" clip-rule="evenodd" d="M1127.27 130.218C1126.56 126.075 1123.85 121.663 1120.93 118.608C1120.8 118.468 1120.8 118.245 1120.94 118.11C1121.09 117.976 1121.31 117.981 1121.44 118.121C1124.45 121.271 1127.23 125.828 1127.96 130.099C1128 130.29 1127.87 130.473 1127.68 130.506C1127.49 130.539 1127.3 130.41 1127.27 130.218Z" fill="url(#paint2_linear_263_14089)"/>
<path fill-rule="evenodd" clip-rule="evenodd" d="M1121.49 118.047C1124.53 119.782 1129.19 120.022 1132.59 119.143C1132.78 119.094 1132.97 119.207 1133.02 119.396C1133.07 119.584 1132.95 119.776 1132.76 119.825C1129.2 120.746 1124.32 120.477 1121.14 118.658C1120.97 118.562 1120.91 118.346 1121.01 118.177C1121.1 118.009 1121.32 117.95 1121.49 118.047Z" fill="url(#paint3_linear_263_14089)"/>
</g>
<g opacity="0.3">
<path d="M1019.4 102.36L1014.95 97.91L1019.4 93.46C1019.96 92.9 1019.96 91.98 1019.4 91.42C1018.84 90.86 1017.92 90.86 1017.36 91.42L1012.91 95.87L1008.46 91.42C1007.9 90.86 1006.98 90.86 1006.42 91.42C1005.86 91.98 1005.86 92.9 1006.42 93.46L1010.87 97.91L1006.42 102.36C1005.86 102.92 1005.86 103.84 1006.42 104.4C1006.98 104.96 1007.9 104.96 1008.46 104.4L1012.91 99.95L1017.36 104.4C1017.92 104.96 1018.84 104.96 1019.4 104.4C1019.97 103.84 1019.97 102.93 1019.4 102.36Z" fill="#244579"/>
</g>
<g opacity="0.3">
<path d="M887.76 93.76L877 83V104.52L887.76 93.76Z" fill="#DA5077"/>
<path d="M904.1 93.76L893.33 83V104.52L904.1 93.76Z" fill="#DA5077"/>
</g>
</g>
<defs>
<linearGradient id="paint0_linear_263_14089" x1="171" y1="296.192" x2="254" y2="296.192" gradientUnits="userSpaceOnUse">
<stop stop-color="#3DCFFD"/>
<stop offset="1" stop-color="#CAECEE"/>
</linearGradient>
<linearGradient id="paint1_linear_263_14089" x1="1150.79" y1="138.745" x2="1120.74" y2="138.745" gradientUnits="userSpaceOnUse">
<stop stop-color="#3DCFFD"/>
<stop offset="1" stop-color="#CAECEE"/>
</linearGradient>
<linearGradient id="paint2_linear_263_14089" x1="1127.97" y1="124.279" x2="1120.84" y2="124.279" gradientUnits="userSpaceOnUse">
<stop stop-color="#3DCFFD"/>
<stop offset="1" stop-color="#CAECEE"/>
</linearGradient>
<linearGradient id="paint3_linear_263_14089" x1="1133.03" y1="119.173" x2="1120.96" y2="119.173" gradientUnits="userSpaceOnUse">
<stop stop-color="#3DCFFD"/>
<stop offset="1" stop-color="#CAECEE"/>
</linearGradient>
<clipPath id="clip0_263_14089">
<rect width="1139" height="340" fill="white"/>
</clipPath>
<clipPath id="clip1_263_14089">
<rect width="41.438" height="41.438" fill="white" transform="matrix(-1 0 0 1 1156.44 118)"/>
</clipPath>
</defs>
</svg>
