<svg width="1139" height="440" viewBox="0 0 1139 440" fill="none" xmlns="http://www.w3.org/2000/svg">
<g clip-path="url(#clip0_16_12)">
<path d="M839.393 5.66697C952.028 -14.6195 1010.15 25.9887 1010.45 27.1959C1013.6 29.1335 1016.78 31.0484 1019.77 33.2469C1024.52 36.7452 1029.14 40.4271 1033.76 44.117C1036.04 45.9358 1038.26 47.8482 1040.34 49.9033C1041.83 51.3801 1042.94 53.2849 1044.41 54.7852C1047.8 58.2294 1051.45 61.4073 1054.75 64.9394C1060.67 71.2827 1066.51 77.7262 1072.22 84.2806C1076.83 89.5759 1081.27 95.0375 1085.66 100.537C1088.72 104.358 1091.56 108.366 1094.48 112.297C1096.92 115.569 1099.56 118.703 1101.71 122.168C1104.26 126.264 1106.49 130.59 1108.65 134.925C1110.88 139.388 1113.06 143.897 1114.92 148.538C1117.13 154.093 1120.1 159.377 1120.34 165.692C1120.53 170.816 1121.38 175.911 1121.67 181.035C1122 187.059 1121.31 193.038 1120.28 198.968C1119.39 204.088 1118.12 209.122 1115.71 213.679C1113.17 218.484 1110.4 223.184 1107.45 227.724C1103.9 233.175 1099.65 237.985 1094.49 241.91C1089.66 245.573 1084.41 248.324 1078.93 250.638C1073.8 252.802 1068.58 254.728 1063.44 256.843C1060.49 258.056 1057.62 259.484 1054.67 260.729C1049.91 262.749 1045.06 264.578 1040.34 266.704C1032.98 270.019 1026.46 274.587 1021.09 280.929C1017.59 285.059 1013.79 288.911 1010.08 292.845C1006.43 296.716 1002.69 300.497 999.064 304.389C997.541 306.023 996.325 307.978 994.746 309.541C992.41 311.853 989.905 313.983 987.418 316.122C984.959 318.236 982.639 320.653 979.892 322.252C973.818 325.787 967.789 329.455 961.009 331.525C955.121 333.323 949.388 335.504 943.257 336.562C936.925 337.655 930.638 338.667 924.217 338.659C915.983 338.649 907.749 338.68 899.516 338.64C897.491 338.63 895.441 338.583 893.449 338.252C888.081 337.361 882.726 336.369 877.388 335.298C873.128 334.443 868.894 333.44 864.659 332.45L864.51 332.416C861.423 331.695 858.333 330.973 855.283 330.104C849.969 328.59 844.677 326.993 839.393 325.369C832.175 323.152 825.766 318.811 818.446 316.78C814.55 315.699 810.797 313.989 807.057 312.368C800.638 309.586 794.261 306.696 787.905 303.759C784.949 302.394 782.178 300.549 779.16 299.383C773.076 297.032 767.399 293.893 762.024 290.186C757.617 287.146 753.498 283.653 749.131 280.544C743.028 276.201 737.228 271.512 732.603 265.444C729.291 261.098 725.81 256.836 722.991 252.152C719.008 245.534 715.361 238.671 711.954 231.707C708.77 225.198 706.019 218.452 703.207 211.751C701.363 207.357 699.527 202.935 698.09 198.387C696.417 193.09 695.322 187.597 693.717 182.275C692.433 178.018 691.96 173.708 692.006 169.299C692.018 168.112 692.317 166.929 692.331 165.742C692.473 154.169 692.551 142.595 692.73 131.022C692.762 128.957 693.114 126.888 693.425 124.839C693.969 121.253 694.57 117.676 695.197 114.105C695.72 111.126 696.08 108.085 696.92 105.201C699.334 96.9153 702.438 88.9019 706.567 81.3695C709.287 76.4095 712.109 71.508 715.002 66.6561C715.902 65.1456 717.197 63.8938 718.289 62.5044C720.5 59.692 722.218 57.2633 724.926 54.0757C756.933 16.4114 802.25 12.3567 839.393 5.66697Z" fill="#3251D9"/>
<path d="M681.5 111.096C679.207 116.731 677.408 122.318 676.481 128.23C675.745 132.927 674.538 137.542 673.717 142.226C673.276 144.744 673.284 147.343 672.952 149.886C672.382 154.259 671.705 158.617 671.071 162.981C670.758 165.133 670.348 167.275 670.143 169.438C669.398 177.301 668.809 185.176 669.058 193.091C669.189 197.265 669.038 201.471 669.48 205.608C670.04 210.846 671.115 216.022 671.889 221.237C672.436 224.916 672.727 228.64 673.353 232.302C674.413 238.506 676.229 244.472 679.295 249.943C680.643 252.347 682.172 254.641 683.636 256.973C684.625 258.548 687.725 259.926 689.06 259.629C690.892 259.22 691.555 257.812 691.391 256.255C691.074 253.244 690.596 250.217 689.831 247.297C688.251 241.26 686.239 235.342 684.787 229.275C683.729 224.851 683.263 220.271 682.572 215.753C681.719 210.18 680.887 204.602 680.092 199.019C679.881 197.539 679.793 196.034 679.732 194.537C679.585 190.88 679.5 187.219 679.362 183.561C679.271 181.138 678.948 178.708 679.048 176.296C679.292 170.447 679.678 164.602 680.094 158.762C680.365 154.952 680.717 151.144 681.168 147.353C681.527 144.328 682.096 141.329 682.565 138.318C683.044 135.247 683.405 132.149 684.02 129.108C684.578 126.352 685.333 123.631 686.135 120.938C688.224 113.931 690.339 106.932 692.534 99.9602C694.176 94.7411 695.97 89.5742 697.671 84.3748C698.42 82.0862 697.951 80.7498 696.263 80.7417C694.918 80.7352 693.83 81.6284 693.236 82.9644C692.729 84.1038 692.307 85.2842 691.803 86.4255C689.443 91.7746 687.019 97.0937 684.719 102.47C683.537 105.233 682.566 108.094 681.5 111.096Z" fill="#3251D9"/>
<path d="M1093.2 303.115C1088.42 301.879 1083.85 300.499 1079.21 299.453C1075.9 298.709 1072.44 297.758 1069.16 298.088C1065.1 298.497 1060.78 297.207 1056.96 299.434C1054.44 300.9 1051.97 302.513 1049.65 304.293C1045.31 307.616 1042.45 312.209 1040.1 317.178C1037.58 322.53 1035.98 328.205 1034.94 334.043C1034.54 336.259 1034.14 338.552 1034.27 340.775C1034.47 344.112 1035.1 347.426 1035.63 350.735C1036.29 354.843 1037.69 358.706 1039.34 362.483C1041.62 367.675 1045.71 371.093 1049.98 374.278C1054.99 378.006 1060.45 380.928 1066.33 382.746C1069.8 383.82 1073.49 384.206 1077.1 384.72C1084.09 385.713 1090.85 383.877 1097.48 382.171C1106.98 379.726 1112.42 372.453 1115.16 363.047C1116.66 357.896 1117.41 352.502 1118.42 347.202C1118.98 344.272 1119.62 341.323 1119.79 338.356C1119.92 335.945 1119.56 333.461 1119.11 331.07C1118.24 326.392 1116.34 322.125 1113.83 318.156C1111.78 314.919 1108.84 312.603 1106.04 310.175C1102.28 306.93 1097.85 304.971 1093.2 303.115Z" fill="#3251D9"/>
<path d="M1110.65 267.393C1109.51 268.949 1108.27 270.311 1107.49 271.916C1107.05 272.824 1107.06 274.25 1107.41 275.234C1108.02 276.978 1109.78 276.877 1111.06 276.49C1112.39 276.087 1113.7 275.189 1114.74 274.19C1120.28 268.873 1125.15 262.904 1129.28 256.371C1132.77 250.844 1135.5 244.831 1136.47 238.179C1137.11 233.835 1137.67 229.456 1137.88 225.073C1138.28 216.9 1138.58 208.713 1138.58 200.532C1138.57 193.585 1137.45 186.773 1134.73 180.336C1133.84 178.216 1130.83 175.48 1128.32 175.632C1126.34 175.751 1124.42 177.25 1124.47 179.298C1124.55 182.274 1124.88 185.254 1125.27 188.208C1125.73 191.631 1126.4 195.022 1126.89 198.439C1127.31 201.366 1127.87 204.307 1127.92 207.25C1128 212.14 1128.02 217.067 1127.54 221.922C1127.09 226.488 1126.07 231.008 1125.1 235.499C1123.95 240.818 1122.75 246.171 1120.13 250.956C1117.1 256.468 1113.87 261.857 1110.65 267.393Z" fill="#3251D9"/>
<path d="M713.957 287.057C712.505 285.338 711.082 283.762 709.792 282.076C706.602 277.905 703.482 273.675 700.313 269.486C699.387 268.262 698.113 267.49 696.703 268.228C695.304 268.96 695.496 270.576 695.573 271.96C695.75 275.161 697.312 277.83 699.014 280.286C702.587 285.443 706.347 290.476 710.798 294.858C715.451 299.439 720.345 303.709 725.7 307.414C728.582 309.408 731.355 311.524 734.837 312.159C735.606 312.3 736.98 312.238 737.148 311.841C737.481 311.056 737.503 309.719 737.051 309.063C736.067 307.634 734.762 306.422 733.485 305.244C731.255 303.187 728.897 301.28 726.683 299.205C722.437 295.226 718.254 291.173 713.957 287.057Z" fill="#3251D9"/>
<path d="M1000.25 237.207C1001.08 237.207 1001.75 236.535 1001.75 235.707C1001.75 234.879 1001.08 234.207 1000.25 234.207V237.207ZM950.784 217.064L951.467 215.728L950.784 217.064ZM550.091 305.322L549.053 304.24L550.091 305.322ZM482.738 358.872L482.392 357.413L482.738 358.872ZM349.174 351.534L348.769 350.09L349.174 351.534ZM309.938 507.664C309.928 506.836 309.248 506.173 308.419 506.183C307.591 506.194 306.928 506.874 306.939 507.702L309.938 507.664ZM306.805 501.826C306.831 502.654 307.524 503.305 308.352 503.279C309.18 503.253 309.83 502.561 309.804 501.733L306.805 501.826ZM309.582 495.814C309.547 494.987 308.847 494.344 308.019 494.38C307.192 494.415 306.549 495.115 306.585 495.943L309.582 495.814ZM306.313 490.076C306.354 490.903 307.057 491.541 307.885 491.5C308.712 491.459 309.35 490.755 309.309 489.928L306.313 490.076ZM309.01 484.044C308.967 483.216 308.261 482.581 307.434 482.623C306.607 482.666 305.971 483.372 306.014 484.199L309.01 484.044ZM305.708 478.316C305.751 479.143 306.456 479.779 307.283 479.737C308.111 479.694 308.747 478.989 308.704 478.162L305.708 478.316ZM308.41 472.282C308.37 471.455 307.667 470.816 306.839 470.856C306.012 470.896 305.373 471.599 305.413 472.427L308.41 472.282ZM305.144 466.532C305.18 467.36 305.879 468.002 306.707 467.967C307.534 467.932 308.177 467.232 308.142 466.405L305.144 466.532ZM307.913 460.529C307.884 459.701 307.19 459.053 306.362 459.081C305.534 459.11 304.886 459.805 304.915 460.633L307.913 460.529ZM304.739 454.728C304.759 455.556 305.447 456.211 306.275 456.191C307.104 456.17 307.758 455.483 307.738 454.654L304.739 454.728ZM307.63 448.782C307.62 447.954 306.94 447.291 306.112 447.301C305.283 447.311 304.62 447.99 304.63 448.819L307.63 448.782ZM304.601 442.906C304.599 443.734 305.268 444.407 306.097 444.41C306.925 444.412 307.599 443.742 307.601 442.914L304.601 442.906ZM307.667 437.05C307.684 436.222 307.026 435.537 306.198 435.52C305.369 435.503 304.684 436.161 304.668 436.99L307.667 437.05ZM304.846 431.072C304.812 431.899 305.456 432.598 306.284 432.631C307.112 432.665 307.81 432.021 307.843 431.193L304.846 431.072ZM308.147 425.345C308.2 424.518 307.573 423.805 306.746 423.752C305.919 423.699 305.206 424.327 305.153 425.153L308.147 425.345ZM305.61 419.239C305.535 420.064 306.143 420.794 306.968 420.869C307.793 420.944 308.522 420.337 308.598 419.512L305.61 419.239ZM309.217 413.7C309.318 412.878 308.734 412.13 307.911 412.029C307.089 411.928 306.341 412.512 306.24 413.335L309.217 413.7ZM307.068 407.448C306.938 408.266 307.495 409.035 308.313 409.166C309.131 409.297 309.9 408.74 310.031 407.921L307.068 407.448ZM311.067 402.188C311.232 401.376 310.707 400.584 309.895 400.42C309.084 400.255 308.292 400.779 308.127 401.591L311.067 402.188ZM309.452 395.778C309.248 396.581 309.733 397.398 310.536 397.602C311.339 397.806 312.155 397.321 312.359 396.518L309.452 395.778ZM313.947 390.93C314.197 390.14 313.759 389.298 312.969 389.048C312.179 388.798 311.336 389.236 311.086 390.026L313.947 390.93ZM313.077 384.373C312.775 385.144 313.156 386.014 313.928 386.316C314.699 386.617 315.569 386.236 315.871 385.465L313.077 384.373ZM318.176 380.169C318.536 379.423 318.224 378.526 317.478 378.165C316.732 377.805 315.835 378.117 315.475 378.863L318.176 380.169ZM318.332 373.56C317.906 374.271 318.136 375.192 318.847 375.618C319.557 376.044 320.479 375.813 320.905 375.103L318.332 373.56ZM324.095 370.341C324.591 369.678 324.456 368.738 323.793 368.241C323.13 367.745 322.19 367.88 321.693 368.543L324.095 370.341ZM325.589 363.907C325.02 364.51 325.047 365.459 325.649 366.028C326.252 366.597 327.201 366.569 327.77 365.967L325.589 363.907ZM331.93 362.066C332.568 361.538 332.657 360.592 332.129 359.954C331.601 359.316 330.655 359.227 330.017 359.755L331.93 362.066ZM334.925 356.187C334.226 356.631 334.019 357.558 334.462 358.257C334.906 358.957 335.833 359.164 336.533 358.72L334.925 356.187ZM341.519 355.973C342.268 355.618 342.587 354.723 342.232 353.975C341.878 353.226 340.983 352.907 340.234 353.262L341.519 355.973ZM345.846 350.994C345.061 351.26 344.641 352.112 344.908 352.896C345.174 353.681 346.026 354.101 346.81 353.835L345.846 350.994ZM352.496 352.225C353.302 352.034 353.8 351.225 353.609 350.419C353.418 349.613 352.61 349.114 351.804 349.306L352.496 352.225ZM357.936 348.102C357.118 348.23 356.558 348.998 356.687 349.816C356.815 350.635 357.583 351.194 358.401 351.065L357.936 348.102ZM364.388 350.347C365.213 350.277 365.826 349.551 365.756 348.726C365.686 347.9 364.96 347.288 364.135 347.357L364.388 350.347ZM370.358 347.035C369.53 347.052 368.872 347.737 368.889 348.565C368.906 349.393 369.592 350.051 370.42 350.034L370.358 347.035ZM376.472 350.084C377.3 350.113 377.995 349.466 378.024 348.638C378.053 347.81 377.406 347.115 376.578 347.086L376.472 350.084ZM382.777 347.457C381.951 347.389 381.226 348.002 381.158 348.828C381.089 349.653 381.703 350.378 382.528 350.447L382.777 347.457ZM388.573 351.073C389.395 351.174 390.143 350.59 390.244 349.768C390.345 348.945 389.761 348.197 388.938 348.096L388.573 351.073ZM395.065 348.95C394.247 348.823 393.48 349.384 393.354 350.203C393.227 351.022 393.788 351.788 394.607 351.915L395.065 348.95ZM400.624 352.922C401.44 353.068 402.219 352.525 402.365 351.71C402.511 350.894 401.968 350.115 401.153 349.969L400.624 352.922ZM407.21 351.107C406.397 350.948 405.608 351.478 405.449 352.291C405.29 353.104 405.82 353.892 406.633 354.051L407.21 351.107ZM412.637 355.259C413.449 355.426 414.242 354.903 414.408 354.091C414.575 353.28 414.052 352.487 413.241 352.32L412.637 355.259ZM419.255 353.566C418.444 353.397 417.649 353.918 417.481 354.729C417.313 355.54 417.834 356.334 418.645 356.503L419.255 353.566ZM424.664 357.741C425.476 357.906 426.267 357.381 426.432 356.569C426.596 355.757 426.072 354.966 425.26 354.801L424.664 357.741ZM431.265 355.986C430.452 355.831 429.666 356.365 429.511 357.178C429.356 357.992 429.89 358.778 430.704 358.933L431.265 355.986ZM436.77 360.032C437.586 360.172 438.361 359.623 438.501 358.807C438.641 357.99 438.092 357.215 437.275 357.075L436.77 360.032ZM443.3 358.026C442.48 357.909 441.72 358.478 441.602 359.298C441.485 360.118 442.054 360.878 442.874 360.996L443.3 358.026ZM449.013 361.773C449.837 361.863 450.577 361.267 450.666 360.444C450.755 359.62 450.16 358.88 449.336 358.791L449.013 361.773ZM455.387 359.319C454.56 359.266 453.847 359.892 453.793 360.719C453.739 361.546 454.366 362.259 455.193 362.313L455.387 359.319ZM461.402 362.559C462.23 362.57 462.911 361.907 462.921 361.079C462.932 360.251 462.269 359.57 461.441 359.56L461.402 362.559ZM467.486 359.46C466.658 359.499 466.019 360.202 466.059 361.029C466.098 361.857 466.801 362.496 467.628 362.456L467.486 359.46ZM473.847 361.95C474.67 361.854 475.259 361.109 475.163 360.286C475.067 359.463 474.322 358.874 473.499 358.97L473.847 361.95ZM479.448 358.048C478.635 358.206 478.104 358.994 478.263 359.807C478.421 360.62 479.209 361.151 480.022 360.992L479.448 358.048ZM486.174 359.521C486.97 359.291 487.429 358.46 487.2 357.664C486.97 356.868 486.139 356.409 485.343 356.638L486.174 359.521ZM491.112 354.668C490.342 354.973 489.965 355.845 490.27 356.615C490.576 357.385 491.447 357.762 492.217 357.457L491.112 354.668ZM498.03 354.831C498.768 354.456 499.063 353.553 498.687 352.814C498.312 352.076 497.409 351.781 496.67 352.157L498.03 354.831ZM501.991 349.153C501.288 349.59 501.072 350.515 501.509 351.219C501.946 351.922 502.871 352.138 503.574 351.701L501.991 349.153ZM508.838 348.144C509.507 347.655 509.653 346.717 509.164 346.048C508.676 345.379 507.737 345.233 507.068 345.721L508.838 348.144ZM511.911 341.937C511.274 342.466 511.187 343.412 511.717 344.049C512.247 344.686 513.192 344.773 513.829 344.243L511.911 341.937ZM518.58 340.079C519.189 339.519 519.229 338.57 518.668 337.96C518.107 337.35 517.158 337.311 516.548 337.872L518.58 340.079ZM521.016 333.595C520.427 334.179 520.424 335.128 521.007 335.716C521.591 336.305 522.54 336.308 523.128 335.725L521.016 333.595ZM527.525 331.24C528.098 330.641 528.077 329.692 527.479 329.119C526.88 328.546 525.931 328.567 525.358 329.166L527.525 331.24ZM529.622 324.636C529.058 325.243 529.093 326.192 529.7 326.756C530.306 327.32 531.256 327.285 531.819 326.678L529.622 324.636ZM536.058 322.088C536.619 321.478 536.58 320.53 535.971 319.968C535.362 319.407 534.413 319.446 533.852 320.055L536.058 322.088ZM538.095 315.467C537.531 316.073 537.564 317.022 538.17 317.587C538.776 318.151 539.726 318.118 540.29 317.512L538.095 315.467ZM544.561 312.991C545.135 312.393 545.116 311.444 544.518 310.87C543.921 310.296 542.971 310.315 542.397 310.912L544.561 312.991ZM546.801 306.435C546.212 307.018 546.207 307.968 546.79 308.556C547.373 309.145 548.323 309.15 548.911 308.567L546.801 306.435ZM553.311 304.319C553.91 303.747 553.933 302.797 553.361 302.198C552.79 301.598 551.84 301.576 551.241 302.147L553.311 304.319ZM555.633 297.984C555.03 298.552 555.002 299.501 555.57 300.104C556.138 300.707 557.087 300.736 557.69 300.167L555.633 297.984ZM562.096 296.042C562.703 295.478 562.737 294.529 562.173 293.922C561.609 293.316 560.659 293.281 560.053 293.846L562.096 296.042ZM564.499 289.737C563.889 290.297 563.848 291.246 564.408 291.856C564.969 292.467 565.917 292.507 566.528 291.947L564.499 289.737ZM570.986 287.884C571.601 287.328 571.648 286.38 571.092 285.765C570.536 285.151 569.588 285.104 568.974 285.659L570.986 287.884ZM573.48 281.612C572.862 282.164 572.807 283.112 573.358 283.73C573.909 284.349 574.858 284.403 575.476 283.852L573.48 281.612ZM579.995 279.857C580.617 279.31 580.679 278.363 580.133 277.74C579.587 277.117 578.639 277.055 578.016 277.601L579.995 279.857ZM582.585 273.627C581.958 274.168 581.888 275.115 582.429 275.742C582.97 276.37 583.917 276.439 584.545 275.898L582.585 273.627ZM589.129 271.977C589.761 271.442 589.839 270.495 589.304 269.863C588.768 269.231 587.822 269.153 587.19 269.689L589.129 271.977ZM591.827 265.794C591.191 266.323 591.104 267.269 591.634 267.906C592.164 268.543 593.11 268.63 593.746 268.1L591.827 265.794ZM598.399 264.265C599.041 263.741 599.137 262.796 598.613 262.155C598.089 261.513 597.144 261.417 596.502 261.941L598.399 264.265ZM601.217 258.132C600.57 258.649 600.465 259.593 600.982 260.24C601.499 260.887 602.443 260.992 603.09 260.475L601.217 258.132ZM607.817 256.736C608.469 256.225 608.584 255.282 608.073 254.63C607.563 253.977 606.62 253.863 605.968 254.373L607.817 256.736ZM610.76 250.664C610.102 251.167 609.977 252.109 610.48 252.766C610.984 253.424 611.925 253.549 612.583 253.046L610.76 250.664ZM617.391 249.409C618.055 248.913 618.19 247.973 617.694 247.309C617.198 246.646 616.258 246.51 615.595 247.006L617.391 249.409ZM620.47 243.406C619.8 243.894 619.653 244.833 620.142 245.502C620.63 246.171 621.568 246.318 622.237 245.83L620.47 243.406ZM627.127 242.309C627.803 241.829 627.961 240.892 627.481 240.217C627.001 239.542 626.065 239.384 625.389 239.863L627.127 242.309ZM630.355 236.381C629.674 236.853 629.503 237.787 629.975 238.468C630.446 239.15 631.38 239.32 632.062 238.849L630.355 236.381ZM637.037 235.456C637.724 234.993 637.907 234.061 637.445 233.374C636.983 232.686 636.051 232.504 635.363 232.966L637.037 235.456ZM640.419 229.617C639.726 230.069 639.53 230.999 639.983 231.693C640.435 232.386 641.365 232.582 642.059 232.129L640.419 229.617ZM647.127 228.873C647.827 228.431 648.036 227.504 647.593 226.804C647.15 226.104 646.224 225.895 645.524 226.338L647.127 228.873ZM650.673 223.134C649.966 223.567 649.744 224.49 650.176 225.197C650.609 225.903 651.532 226.126 652.239 225.693L650.673 223.134ZM657.398 222.59C658.112 222.169 658.348 221.249 657.927 220.536C657.505 219.823 656.585 219.586 655.872 220.008L657.398 222.59ZM661.121 216.961C660.401 217.371 660.15 218.287 660.561 219.007C660.971 219.727 661.887 219.978 662.606 219.568L661.121 216.961ZM667.859 216.631C668.586 216.233 668.852 215.321 668.453 214.595C668.055 213.868 667.143 213.602 666.417 214.001L667.859 216.631ZM671.763 211.128C671.03 211.514 670.748 212.421 671.134 213.154C671.52 213.887 672.427 214.168 673.16 213.782L671.763 211.128ZM678.51 211.025C679.25 210.651 679.547 209.749 679.174 209.01C678.801 208.27 677.899 207.973 677.159 208.346L678.51 211.025ZM682.603 205.661C681.857 206.02 681.543 206.917 681.903 207.663C682.263 208.409 683.16 208.723 683.906 208.363L682.603 205.661ZM689.348 205.8C690.101 205.454 690.431 204.564 690.085 203.811C689.739 203.058 688.848 202.728 688.095 203.074L689.348 205.8ZM693.637 200.591C692.878 200.922 692.531 201.806 692.863 202.566C693.195 203.325 694.079 203.671 694.838 203.34L693.637 200.591ZM700.372 200.986C701.138 200.669 701.502 199.792 701.185 199.026C700.868 198.261 699.991 197.897 699.225 198.214L700.372 200.986ZM704.86 195.948C704.089 196.249 703.707 197.119 704.009 197.891C704.31 198.662 705.18 199.043 705.952 198.742L704.86 195.948ZM711.575 196.611C712.352 196.326 712.751 195.464 712.465 194.686C712.18 193.908 711.318 193.51 710.54 193.795L711.575 196.611ZM716.264 191.76C715.481 192.03 715.064 192.883 715.333 193.667C715.602 194.45 716.456 194.867 717.239 194.597L716.264 191.76ZM722.946 192.703C723.735 192.45 724.17 191.606 723.918 190.817C723.665 190.028 722.821 189.593 722.032 189.846L722.946 192.703ZM727.837 188.056C727.042 188.292 726.589 189.127 726.825 189.921C727.06 190.715 727.895 191.168 728.689 190.933L727.837 188.056ZM734.47 189.288C735.269 189.07 735.74 188.246 735.522 187.446C735.304 186.647 734.48 186.176 733.681 186.394L734.47 189.288ZM739.564 184.86C738.76 185.06 738.271 185.874 738.471 186.678C738.67 187.482 739.484 187.972 740.288 187.772L739.564 184.86ZM746.134 186.388C746.942 186.206 747.45 185.403 747.268 184.595C747.086 183.787 746.284 183.279 745.476 183.461L746.134 186.388ZM751.419 182.196C750.607 182.359 750.081 183.15 750.244 183.962C750.407 184.774 751.198 185.3 752.01 185.137L751.419 182.196ZM757.919 184.021C758.734 183.876 759.279 183.098 759.134 182.282C758.99 181.467 758.212 180.922 757.396 181.067L757.919 184.021ZM763.39 180.078C762.571 180.203 762.009 180.968 762.134 181.787C762.259 182.606 763.025 183.168 763.844 183.043L763.39 180.078ZM769.791 182.204C770.613 182.097 771.193 181.345 771.087 180.524C770.98 179.702 770.228 179.122 769.407 179.228L769.791 182.204ZM775.45 178.519C774.627 178.606 774.029 179.344 774.116 180.168C774.203 180.992 774.941 181.589 775.765 181.503L775.45 178.519ZM781.742 180.943C782.568 180.875 783.182 180.151 783.115 179.326C783.047 178.5 782.323 177.885 781.497 177.953L781.742 180.943ZM787.559 177.528C786.732 177.577 786.1 178.286 786.149 179.113C786.197 179.94 786.906 180.572 787.733 180.523L787.559 177.528ZM793.746 180.244C794.573 180.215 795.221 179.52 795.192 178.692C795.164 177.864 794.469 177.217 793.641 177.245L793.746 180.244ZM799.708 177.105C798.879 177.114 798.216 177.794 798.225 178.622C798.235 179.45 798.914 180.114 799.743 180.104L799.708 177.105ZM805.728 180.099C806.556 180.106 807.234 179.441 807.241 178.612C807.248 177.784 806.582 177.107 805.753 177.1L805.728 180.099ZM811.721 177.202C810.893 177.181 810.204 177.835 810.183 178.663C810.161 179.491 810.815 180.18 811.643 180.201L811.721 177.202ZM817.553 180.409C818.38 180.446 819.081 179.804 819.118 178.977C819.154 178.149 818.513 177.449 817.686 177.412L817.553 180.409ZM823.65 177.733C822.823 177.681 822.11 178.308 822.058 179.135C822.006 179.962 822.633 180.675 823.46 180.727L823.65 177.733ZM829.362 181.16C830.188 181.228 830.913 180.615 830.981 179.789C831.05 178.964 830.437 178.239 829.611 178.17L829.362 181.16ZM835.56 178.726C834.736 178.641 833.999 179.239 833.913 180.063C833.828 180.887 834.427 181.625 835.251 181.71L835.56 178.726ZM841.124 182.381C841.946 182.484 842.695 181.901 842.798 181.079C842.901 180.257 842.317 179.507 841.495 179.405L841.124 182.381ZM847.415 180.208C846.595 180.088 845.833 180.655 845.713 181.474C845.593 182.294 846.16 183.056 846.98 183.176L847.415 180.208ZM852.822 184.097C853.639 184.235 854.413 183.684 854.55 182.867C854.688 182.05 854.138 181.276 853.321 181.139L852.822 184.097ZM859.204 182.197C858.39 182.042 857.604 182.575 857.449 183.389C857.293 184.202 857.827 184.988 858.64 185.144L859.204 182.197ZM864.433 186.317C865.243 186.49 866.04 185.974 866.214 185.164C866.387 184.354 865.871 183.557 865.061 183.383L864.433 186.317ZM870.891 184.697C870.085 184.506 869.277 185.005 869.086 185.811C868.895 186.617 869.394 187.426 870.2 187.616L870.891 184.697ZM875.938 189.04C876.74 189.249 877.558 188.767 877.767 187.966C877.975 187.164 877.493 186.345 876.692 186.137L875.938 189.04ZM882.459 187.7C881.662 187.475 880.833 187.938 880.608 188.736C880.383 189.533 880.847 190.362 881.644 190.587L882.459 187.7ZM887.319 192.253C888.111 192.494 888.949 192.047 889.191 191.255C889.432 190.462 888.986 189.624 888.193 189.383L887.319 192.253ZM893.889 191.181C893.102 190.924 892.255 191.354 891.998 192.141C891.74 192.929 892.17 193.776 892.957 194.033L893.889 191.181ZM898.561 195.925C899.344 196.197 900.199 195.784 900.471 195.002C900.744 194.219 900.33 193.364 899.548 193.092L898.561 195.925ZM905.17 195.109C904.393 194.822 903.53 195.219 903.243 195.996C902.956 196.773 903.354 197.636 904.131 197.923L905.17 195.109ZM909.666 200.023C910.438 200.323 911.308 199.941 911.608 199.169C911.909 198.397 911.527 197.528 910.755 197.227L909.666 200.023ZM916.296 199.438C915.529 199.125 914.653 199.493 914.34 200.259C914.027 201.026 914.394 201.902 915.161 202.215L916.296 199.438ZM920.623 204.498C921.384 204.824 922.266 204.47 922.591 203.708C922.917 202.946 922.563 202.065 921.801 201.739L920.623 204.498ZM927.271 204.124C926.514 203.788 925.628 204.128 925.291 204.885C924.954 205.642 925.295 206.529 926.052 206.866L927.271 204.124ZM931.451 209.311C932.203 209.658 933.094 209.33 933.441 208.578C933.788 207.825 933.46 206.934 932.707 206.587L931.451 209.311ZM938.106 209.12C937.358 208.763 936.463 209.081 936.106 209.828C935.75 210.576 936.067 211.471 936.814 211.828L938.106 209.12ZM942.146 214.409C942.889 214.775 943.788 214.468 944.154 213.725C944.519 212.981 944.212 212.082 943.469 211.717L942.146 214.409ZM948.803 214.374C948.063 214.001 947.161 214.298 946.787 215.037C946.414 215.777 946.711 216.679 947.45 217.052L948.803 214.374ZM953.047 219.93C953.78 220.315 954.687 220.034 955.073 219.301C955.459 218.567 955.177 217.66 954.444 217.275L953.047 219.93ZM960.345 220.416C959.614 220.026 958.705 220.302 958.315 221.033C957.925 221.763 958.201 222.672 958.931 223.063L960.345 220.416ZM964.855 226.186C965.591 226.566 966.496 226.278 966.876 225.542C967.256 224.806 966.968 223.901 966.232 223.521L964.855 226.186ZM972.163 226.474C971.415 226.118 970.52 226.437 970.164 227.185C969.809 227.933 970.127 228.828 970.875 229.183L972.163 226.474ZM977.046 231.932C977.812 232.247 978.689 231.882 979.004 231.116C979.319 230.35 978.954 229.473 978.188 229.158L977.046 231.932ZM984.34 231.434C983.552 231.178 982.706 231.609 982.45 232.397C982.194 233.185 982.626 234.031 983.414 234.287L984.34 231.434ZM990.004 236.072C990.815 236.245 991.612 235.728 991.784 234.918C991.957 234.108 991.441 233.311 990.631 233.138L990.004 236.072ZM997.033 234.081C996.207 234.017 995.485 234.635 995.422 235.461C995.358 236.287 995.976 237.008 996.802 237.072L997.033 234.081ZM309.958 510.598C309.958 509.637 309.951 508.659 309.938 507.664L306.939 507.702C306.951 508.685 306.958 509.651 306.958 510.598H309.958ZM309.804 501.733C309.744 499.807 309.668 497.832 309.582 495.814L306.585 495.943C306.671 497.952 306.746 499.915 306.805 501.826L309.804 501.733ZM309.309 489.928C309.214 487.997 309.113 486.034 309.01 484.044L306.014 484.199C306.117 486.189 306.218 488.149 306.313 490.076L309.309 489.928ZM308.704 478.162C308.604 476.222 308.505 474.261 308.41 472.282L305.413 472.427C305.509 474.41 305.608 476.374 305.708 478.316L308.704 478.162ZM308.142 466.405C308.059 464.457 307.982 462.498 307.913 460.529L304.915 460.633C304.984 462.611 305.061 464.578 305.144 466.532L308.142 466.405ZM307.738 454.654C307.69 452.701 307.653 450.743 307.63 448.782L304.63 448.819C304.654 450.793 304.691 452.764 304.739 454.728L307.738 454.654ZM307.601 442.914C307.606 440.957 307.628 439.001 307.667 437.05L304.668 436.99C304.628 438.959 304.607 440.932 304.601 442.906L307.601 442.914ZM307.843 431.193C307.923 429.234 308.023 427.283 308.147 425.345L305.153 425.153C305.027 427.117 304.926 429.091 304.846 431.072L307.843 431.193ZM308.598 419.512C308.776 417.557 308.982 415.619 309.217 413.7L306.24 413.335C306 415.286 305.791 417.255 305.61 419.239L308.598 419.512ZM310.031 407.921C310.34 405.983 310.685 404.071 311.067 402.188L308.127 401.591C307.736 403.518 307.384 405.471 307.068 407.448L310.031 407.921ZM312.359 396.518C312.843 394.616 313.371 392.752 313.947 390.93L311.086 390.026C310.492 391.906 309.949 393.825 309.452 395.778L312.359 396.518ZM315.871 385.465C316.582 383.646 317.349 381.879 318.176 380.169L315.475 378.863C314.612 380.647 313.814 382.486 313.077 384.373L315.871 385.465ZM320.905 375.103C321.898 373.446 322.96 371.857 324.095 370.341L321.693 368.543C320.494 370.146 319.375 371.82 318.332 373.56L320.905 375.103ZM327.77 365.967C329.075 364.585 330.46 363.283 331.93 362.066L330.017 359.755C328.45 361.052 326.976 362.439 325.589 363.907L327.77 365.967ZM336.533 358.72C338.109 357.719 339.77 356.802 341.519 355.973L340.234 353.262C338.375 354.143 336.606 355.12 334.925 356.187L336.533 358.72ZM346.81 353.835C347.712 353.528 348.635 353.243 349.578 352.979L348.769 350.09C347.774 350.368 346.8 350.67 345.846 350.994L346.81 353.835ZM349.578 352.979C350.55 352.707 351.522 352.456 352.496 352.225L351.804 349.306C350.791 349.546 349.78 349.807 348.769 350.09L349.578 352.979ZM358.401 351.065C360.391 350.753 362.387 350.516 364.388 350.347L364.135 347.357C362.067 347.532 360 347.778 357.936 348.102L358.401 351.065ZM370.42 350.034C372.432 349.993 374.45 350.012 376.472 350.084L376.578 347.086C374.504 347.012 372.431 346.992 370.358 347.035L370.42 350.034ZM382.528 350.447C384.539 350.614 386.554 350.826 388.573 351.073L388.938 348.096C386.885 347.844 384.831 347.628 382.777 347.457L382.528 350.447ZM394.607 351.915C396.61 352.224 398.616 352.563 400.624 352.922L401.153 349.969C399.125 349.606 397.095 349.264 395.065 348.95L394.607 351.915ZM406.633 354.051C408.633 354.443 410.634 354.848 412.637 355.259L413.241 352.32C411.232 351.908 409.221 351.501 407.21 351.107L406.633 354.051ZM418.645 356.503C420.65 356.919 422.657 357.335 424.664 357.741L425.26 354.801C423.26 354.396 421.259 353.982 419.255 353.566L418.645 356.503ZM430.704 358.933C432.726 359.318 434.748 359.687 436.77 360.032L437.275 357.075C435.275 356.734 433.272 356.368 431.265 355.986L430.704 358.933ZM442.874 360.996C444.921 361.29 446.968 361.552 449.013 361.773L449.336 358.791C447.329 358.573 445.317 358.316 443.3 358.026L442.874 360.996ZM455.193 362.313C457.264 362.447 459.334 362.532 461.402 362.559L461.441 359.56C459.429 359.533 457.411 359.451 455.387 359.319L455.193 362.313ZM467.628 362.456C469.704 362.358 471.777 362.192 473.847 361.95L473.499 358.97C471.501 359.204 469.497 359.364 467.486 359.46L467.628 362.456ZM480.022 360.992C481.044 360.793 482.064 360.574 483.084 360.332L482.392 357.413C481.413 357.645 480.431 357.856 479.448 358.048L480.022 360.992ZM483.084 360.332C484.13 360.084 485.16 359.813 486.174 359.521L485.343 356.638C484.375 356.918 483.392 357.176 482.392 357.413L483.084 360.332ZM492.217 357.457C494.216 356.665 496.151 355.786 498.03 354.831L496.67 352.157C494.871 353.072 493.021 353.911 491.112 354.668L492.217 357.457ZM503.574 351.701C505.377 350.581 507.129 349.392 508.838 348.144L507.068 345.721C505.415 346.929 503.725 348.075 501.991 349.153L503.574 351.701ZM513.829 344.243C515.444 342.901 517.025 341.509 518.58 340.079L516.548 337.872C515.026 339.272 513.483 340.63 511.911 341.937L513.829 344.243ZM523.128 335.725C524.61 334.256 526.073 332.757 527.525 331.24L525.358 329.166C523.919 330.669 522.475 332.148 521.016 333.595L523.128 335.725ZM531.819 326.678C533.233 325.156 534.645 323.623 536.058 322.088L533.852 320.055C532.436 321.592 531.03 323.12 529.622 324.636L531.819 326.678ZM540.29 317.512C541.702 315.996 543.123 314.487 544.561 312.991L542.397 310.912C540.946 312.423 539.514 313.944 538.095 315.467L540.29 317.512ZM548.911 308.567C549.645 307.841 550.384 307.12 551.129 306.405L549.053 304.24C548.295 304.966 547.545 305.699 546.801 306.435L548.911 308.567ZM551.129 306.405C551.856 305.708 552.583 305.013 553.311 304.319L551.241 302.147C550.51 302.844 549.781 303.541 549.053 304.24L551.129 306.405ZM557.69 300.167C559.155 298.787 560.624 297.412 562.096 296.042L560.053 293.846C558.576 295.22 557.102 296.599 555.633 297.984L557.69 300.167ZM566.528 291.947C568.01 290.587 569.496 289.232 570.986 287.884L568.974 285.659C567.478 287.013 565.987 288.372 564.499 289.737L566.528 291.947ZM575.476 283.852C576.978 282.513 578.484 281.181 579.995 279.857L578.016 277.601C576.5 278.931 574.988 280.269 573.48 281.612L575.476 283.852ZM584.545 275.898C586.069 274.584 587.597 273.276 589.129 271.977L587.19 269.689C585.65 270.994 584.115 272.306 582.585 273.627L584.545 275.898ZM593.746 268.1C595.293 266.813 596.844 265.535 598.399 264.265L596.502 261.941C594.939 263.216 593.381 264.501 591.827 265.794L593.746 268.1ZM603.09 260.475C604.661 259.219 606.236 257.972 607.817 256.736L605.968 254.373C604.379 255.617 602.795 256.87 601.217 258.132L603.09 260.475ZM612.583 253.046C614.181 251.823 615.783 250.611 617.391 249.409L615.595 247.006C613.978 248.215 612.366 249.434 610.76 250.664L612.583 253.046ZM622.237 245.83C623.862 244.645 625.492 243.471 627.127 242.309L625.389 239.863C623.744 241.033 622.104 242.214 620.47 243.406L622.237 245.83ZM632.062 238.849C633.715 237.705 635.373 236.574 637.037 235.456L635.363 232.966C633.688 234.092 632.019 235.231 630.355 236.381L632.062 238.849ZM642.059 232.129C643.742 231.031 645.432 229.945 647.127 228.873L645.524 226.338C643.816 227.417 642.115 228.511 640.419 229.617L642.059 232.129ZM652.239 225.693C653.953 224.645 655.672 223.61 657.398 222.59L655.872 220.008C654.133 221.036 652.4 222.078 650.673 223.134L652.239 225.693ZM662.606 219.568C664.351 218.574 666.102 217.595 667.859 216.631L666.417 214.001C664.645 214.972 662.88 215.959 661.121 216.961L662.606 219.568ZM673.16 213.782C674.937 212.847 676.72 211.927 678.51 211.025L677.159 208.346C675.354 209.257 673.555 210.184 671.763 211.128L673.16 213.782ZM683.906 208.363C685.713 207.492 687.527 206.637 689.348 205.8L688.095 203.074C686.257 203.919 684.427 204.781 682.603 205.661L683.906 208.363ZM694.838 203.34C696.676 202.537 698.521 201.752 700.372 200.986L699.225 198.214C697.355 198.988 695.493 199.78 693.637 200.591L694.838 203.34ZM705.952 198.742C707.819 198.013 709.693 197.302 711.575 196.611L710.54 193.795C708.639 194.493 706.746 195.211 704.86 195.948L705.952 198.742ZM717.239 194.597C719.134 193.946 721.036 193.314 722.946 192.703L722.032 189.846C720.101 190.464 718.179 191.102 716.264 191.76L717.239 194.597ZM728.689 190.933C730.608 190.364 732.535 189.816 734.47 189.288L733.681 186.394C731.725 186.927 729.777 187.481 727.837 188.056L728.689 190.933ZM740.288 187.772C742.229 187.289 744.177 186.827 746.134 186.388L745.476 183.461C743.497 183.906 741.527 184.372 739.564 184.86L740.288 187.772ZM752.01 185.137C753.972 184.743 755.941 184.371 757.919 184.021L757.396 181.067C755.395 181.421 753.403 181.797 751.419 182.196L752.01 185.137ZM763.844 183.043C765.818 182.741 767.801 182.461 769.791 182.204L769.407 179.228C767.393 179.489 765.387 179.772 763.39 180.078L763.844 183.043ZM775.765 181.503C777.749 181.293 779.742 181.107 781.742 180.943L781.497 177.953C779.473 178.119 777.458 178.307 775.45 178.519L775.765 181.503ZM787.733 180.523C789.729 180.407 791.733 180.314 793.746 180.244L793.641 177.245C791.605 177.316 789.578 177.411 787.559 177.528L787.733 180.523ZM799.743 180.104C800.746 180.093 801.752 180.087 802.759 180.087V177.087C801.74 177.087 800.723 177.093 799.708 177.105L799.743 180.104ZM802.759 180.087C803.753 180.087 804.743 180.091 805.728 180.099L805.753 177.1C804.759 177.091 803.761 177.087 802.759 177.087V180.087ZM811.643 180.201C813.629 180.253 815.598 180.322 817.553 180.409L817.686 177.412C815.713 177.324 813.725 177.254 811.721 177.202L811.643 180.201ZM823.46 180.727C825.442 180.853 827.409 180.997 829.362 181.16L829.611 178.17C827.638 178.006 825.651 177.86 823.65 177.733L823.46 180.727ZM835.251 181.71C837.221 181.915 839.178 182.138 841.124 182.381L841.495 179.405C839.529 179.159 837.551 178.933 835.56 178.726L835.251 181.71ZM846.98 183.176C848.938 183.463 850.885 183.77 852.822 184.097L853.321 181.139C851.363 180.808 849.394 180.498 847.415 180.208L846.98 183.176ZM858.64 185.144C860.58 185.515 862.51 185.906 864.433 186.317L865.061 183.383C863.117 182.967 861.165 182.572 859.204 182.197L858.64 185.144ZM870.2 187.616C872.119 188.071 874.031 188.545 875.938 189.04L876.692 186.137C874.764 185.636 872.831 185.156 870.891 184.697L870.2 187.616ZM881.644 190.587C883.539 191.122 885.43 191.677 887.319 192.253L888.193 189.383C886.285 188.801 884.375 188.24 882.459 187.7L881.644 190.587ZM892.957 194.033C894.826 194.644 896.694 195.274 898.561 195.925L899.548 193.092C897.663 192.435 895.777 191.798 893.889 191.181L892.957 194.033ZM904.131 197.923C905.975 198.604 907.819 199.303 909.666 200.023L910.755 197.227C908.892 196.502 907.03 195.795 905.17 195.109L904.131 197.923ZM915.161 202.215C916.978 202.958 918.798 203.719 920.623 204.498L921.801 201.739C919.962 200.954 918.128 200.187 916.296 199.438L915.161 202.215ZM926.052 206.866C927.846 207.663 929.645 208.479 931.451 209.311L932.707 206.587C930.89 205.749 929.078 204.928 927.271 204.124L926.052 206.866ZM936.814 211.828C938.584 212.672 940.361 213.532 942.146 214.409L943.469 211.717C941.674 210.835 939.886 209.969 938.106 209.12L936.814 211.828ZM947.45 217.052C948.332 217.497 949.215 217.946 950.101 218.399L951.467 215.728C950.576 215.273 949.688 214.822 948.803 214.374L947.45 217.052ZM950.101 218.399C951.075 218.897 952.057 219.409 953.047 219.93L954.444 217.275C953.447 216.75 952.454 216.233 951.467 215.728L950.101 218.399ZM958.931 223.063C960.881 224.104 962.858 225.155 964.855 226.186L966.232 223.521C964.254 222.499 962.292 221.457 960.345 220.416L958.931 223.063ZM970.875 229.183C972.911 230.152 974.969 231.077 977.046 231.932L978.188 229.158C976.17 228.327 974.161 227.424 972.163 226.474L970.875 229.183ZM983.414 234.287C985.591 234.994 987.789 235.599 990.004 236.072L990.631 233.138C988.529 232.69 986.432 232.113 984.34 231.434L983.414 234.287ZM996.802 237.072C997.948 237.161 999.098 237.207 1000.25 237.207V234.207C999.178 234.207 998.105 234.164 997.033 234.081L996.802 237.072Z" fill="#3251D9" fill-opacity="0.5"/>
</g>
<defs>
<clipPath id="clip0_16_12">
<rect width="1139" height="440" fill="white"/>
</clipPath>
</defs>
</svg>
