<svg width="1139" height="400" viewBox="0 0 1139 400" fill="none" xmlns="http://www.w3.org/2000/svg">
<g clip-path="url(#clip0_16_15)">
<path d="M203.983 347.833C302.967 366.328 354.046 329.306 354.306 328.206C357.077 326.439 359.874 324.694 362.497 322.689C366.67 319.5 370.737 316.143 374.794 312.779C376.794 311.121 378.748 309.377 380.575 307.504C381.889 306.157 382.858 304.421 384.155 303.053C387.134 299.913 390.338 297.016 393.237 293.795C398.444 288.012 403.57 282.138 408.588 276.162C412.643 271.335 416.548 266.355 420.407 261.342C423.089 257.858 425.584 254.204 428.156 250.621C430.297 247.637 432.619 244.78 434.512 241.621C436.749 237.887 438.705 233.942 440.608 229.99C442.567 225.922 444.483 221.81 446.112 217.58C448.062 212.515 450.672 207.698 450.88 201.941C451.049 197.269 451.795 192.624 452.045 187.953C452.339 182.461 451.734 177.01 450.83 171.603C450.049 166.935 448.932 162.346 446.811 158.192C444.575 153.811 442.148 149.526 439.549 145.387C436.429 140.417 432.701 136.032 428.16 132.454C423.92 129.114 419.301 126.606 414.484 124.496C409.98 122.523 405.396 120.767 400.875 118.84C398.28 117.733 395.757 116.432 393.173 115.296C388.984 113.455 384.727 111.787 380.577 109.849C374.107 106.827 368.377 102.662 363.655 96.8803C360.58 93.1152 357.239 89.6028 353.981 86.0166C350.774 82.4877 347.49 79.0405 344.302 75.4923C342.964 74.0029 341.895 72.2201 340.507 70.7948C338.455 68.6869 336.254 66.7451 334.068 64.7954C331.907 62.8678 329.868 60.6642 327.454 59.2068C322.116 55.9839 316.818 52.6395 310.86 50.7524C305.685 49.1135 300.647 47.1252 295.259 46.1603C289.694 45.1637 284.17 44.2416 278.526 44.2486C271.291 44.2578 264.055 44.2292 256.82 44.2663C255.04 44.2754 253.239 44.318 251.488 44.6196C246.77 45.4324 242.064 46.3365 237.373 47.3132C233.629 48.0927 229.909 49.0071 226.188 49.9089L226.057 49.9406C223.344 50.598 220.628 51.2561 217.947 52.0482C213.278 53.4279 208.627 54.8847 203.983 56.3648C197.641 58.3865 192.008 62.3441 185.576 64.1954C182.151 65.1808 178.854 66.7398 175.567 68.2177C169.926 70.7543 164.322 73.3886 158.736 76.066C156.139 77.3113 153.703 78.9932 151.05 80.0564C145.704 82.1991 140.715 85.0611 135.992 88.4405C132.118 91.212 128.499 94.397 124.661 97.2309C119.298 101.191 114.201 105.465 110.136 110.998C107.226 114.96 104.167 118.846 101.689 123.116C98.1894 129.15 94.9838 135.407 91.9903 141.755C89.1918 147.69 86.7749 153.84 84.3036 159.949C82.6832 163.955 81.0693 167.987 79.8068 172.133C78.3366 176.962 77.374 181.97 75.9631 186.822C74.835 190.703 74.4194 194.633 74.4599 198.652C74.4708 199.734 74.7331 200.813 74.7459 201.895C74.8704 212.446 74.9388 222.998 75.0961 233.549C75.1241 235.432 75.4336 237.318 75.707 239.186C76.1853 242.455 76.7133 245.716 77.2641 248.972C77.7236 251.688 78.0404 254.46 78.7786 257.089C80.8993 264.643 83.6271 271.949 87.2563 278.816C89.646 283.338 92.1262 287.807 94.6684 292.23C95.4599 293.608 96.5978 294.749 97.5575 296.016C99.5 298.579 101.01 300.794 103.39 303.7C131.518 338.038 171.342 341.735 203.983 347.833Z" fill="#3251D9"/>
<path d="M65.2272 251.715C63.2117 246.578 61.631 241.484 60.8167 236.094C60.1699 231.812 59.109 227.605 58.3873 223.334C57.9995 221.039 58.007 218.669 57.7156 216.35C57.2143 212.363 56.6196 208.39 56.0623 204.412C55.7875 202.45 55.4268 200.497 55.2466 198.525C54.5917 191.356 54.0748 184.177 54.2929 176.961C54.4079 173.155 54.2758 169.322 54.6644 165.55C55.1565 160.774 56.1009 156.055 56.7814 151.3C57.2613 147.946 57.5174 144.552 58.0675 141.213C58.9992 135.557 60.5953 130.118 63.2898 125.13C64.4739 122.938 65.8173 120.847 67.1042 118.721C67.9735 117.285 70.698 116.029 71.8707 116.3C73.4812 116.672 74.0634 117.955 73.9193 119.375C73.6406 122.121 73.2207 124.881 72.5488 127.543C71.1596 133.046 69.3915 138.442 68.1161 143.973C67.1861 148.006 66.7762 152.182 66.1691 156.3C65.4199 161.382 64.6884 166.466 63.99 171.556C63.8048 172.906 63.727 174.278 63.6738 175.643C63.5439 178.977 63.4699 182.314 63.3485 185.65C63.2682 187.859 62.9842 190.074 63.0726 192.273C63.2868 197.606 63.6263 202.934 63.9917 208.258C64.2301 211.732 64.5386 215.204 64.935 218.66C65.2513 221.418 65.751 224.152 66.1633 226.897C66.5839 229.697 66.9011 232.521 67.4421 235.293C67.9323 237.806 68.5957 240.287 69.3009 242.742C71.1359 249.13 72.9952 255.511 74.9234 261.867C76.3669 266.626 77.9438 271.336 79.4384 276.076C80.0963 278.163 79.6846 279.381 78.2009 279.389C77.019 279.395 76.0632 278.58 75.5408 277.362C75.0953 276.324 74.724 275.247 74.2816 274.207C72.2078 269.33 70.0776 264.481 68.0562 259.579C67.0175 257.06 66.1642 254.452 65.2272 251.715Z" fill="#3251D9"/>
<path d="M427.032 76.6533C422.83 77.7808 418.811 79.0389 414.732 79.9918C411.826 80.6703 408.786 81.5374 405.902 81.2366C402.331 80.864 398.541 82.0394 395.177 80.0093C392.963 78.6731 390.799 77.2025 388.756 75.5801C384.94 72.5499 382.429 68.3626 380.368 63.8322C378.148 58.9531 376.748 53.7797 375.829 48.4566C375.48 46.4365 375.125 44.3459 375.243 42.3198C375.421 39.2773 375.974 36.256 376.441 33.239C377.02 29.494 378.243 25.9715 379.7 22.5282C381.704 17.795 385.296 14.6787 389.051 11.775C393.447 8.37601 398.25 5.71255 403.417 4.05501C406.469 3.07605 409.706 2.72359 412.881 2.2554C419.019 1.3502 424.965 3.0234 430.79 4.57914C439.138 6.80864 443.921 13.439 446.329 22.0139C447.648 26.71 448.306 31.6277 449.195 36.4598C449.687 39.1315 450.251 41.8199 450.392 44.5247C450.507 46.7225 450.192 48.9877 449.801 51.1669C449.036 55.4318 447.361 59.3224 445.155 62.9406C443.355 65.8924 440.778 68.0034 438.309 70.2174C435.011 73.1756 431.119 74.9613 427.032 76.6533Z" fill="#3251D9"/>
<path d="M442.36 109.221C441.362 107.802 440.273 106.561 439.588 105.097C439.201 104.269 439.21 102.97 439.515 102.072C440.057 100.482 441.602 100.574 442.724 100.927C443.896 101.295 445.045 102.114 445.959 103.024C450.824 107.871 455.106 113.314 458.735 119.27C461.804 124.308 464.204 129.79 465.057 135.855C465.615 139.816 466.105 143.808 466.293 147.804C466.642 155.255 466.913 162.719 466.908 170.177C466.903 176.51 465.917 182.721 463.528 188.589C462.741 190.523 460.101 193.017 457.893 192.879C456.156 192.77 454.464 191.403 454.509 189.536C454.575 186.823 454.873 184.106 455.216 181.413C455.613 178.292 456.205 175.201 456.638 172.085C457.009 169.417 457.493 166.736 457.538 164.053C457.614 159.594 457.625 155.102 457.204 150.676C456.808 146.513 455.917 142.393 455.063 138.298C454.052 133.449 452.997 128.569 450.692 124.206C448.036 119.181 445.197 114.268 442.36 109.221Z" fill="#3251D9"/>
<path d="M93.7501 91.2933C92.4747 92.8605 91.2242 94.2972 90.0904 95.835C87.2868 99.6376 84.5449 103.494 81.7599 107.313C80.946 108.429 79.8269 109.133 78.5877 108.46C77.3579 107.792 77.5268 106.319 77.5942 105.057C77.75 102.139 79.1229 99.7061 80.6187 97.4663C83.7581 92.7653 87.0625 88.1762 90.9742 84.1813C95.063 80.0054 99.3643 76.1118 104.07 72.7344C106.603 70.9164 109.04 68.9872 112.099 68.4081C112.776 68.2802 113.983 68.3364 114.13 68.6983C114.423 69.4142 114.442 70.6329 114.045 71.2313C113.18 72.5334 112.034 73.6382 110.911 74.7124C108.952 76.588 106.88 78.3262 104.934 80.2179C101.203 83.846 97.527 87.5413 93.7501 91.2933Z" fill="#3251D9"/>
<path d="M308.534 1.99475C308.534 9.02539 308.534 16.056 308.534 23.0867C308.534 29.2612 309.111 35.4029 309.111 41.5892C309.111 44.9879 308.926 48.4337 309.127 51.8265C309.287 54.5453 310.494 57.2094 310.552 59.926C310.636 63.894 312.029 66.9319 313.37 70.5548C313.751 71.5864 314.156 72.8696 314.362 73.9271C314.608 75.1824 314.01 78.7877 314.779 77.736C316.445 75.4567 317.717 72.9577 319.422 70.6752C319.827 70.134 320.351 69.6157 320.351 68.9289C320.351 68.898 319.417 70.4042 319.07 70.7957C317.637 72.412 316.678 74.5678 315.467 76.3509C314.082 78.3919 313.345 77.964 311.768 76.2456C309.281 73.5345 306.065 71.2138 303.346 68.6579" stroke="#3251D9" stroke-opacity="0.5" stroke-width="3" stroke-linecap="round" stroke-dasharray="6 6"/>
<path d="M421 224.054C423.047 222.342 424.872 218.108 426.782 215.472C431.124 209.479 435.701 205.938 440.382 203.074C448.039 198.39 456.059 200.452 463.836 200.452C481.025 200.452 497.931 208.439 511.151 242.889C519.286 264.085 527.32 292.029 539.166 292.716C552.758 293.504 565.508 285.913 578.989 281.988C591.879 278.234 604.681 272.143 617.59 269.114C628.974 266.442 640.917 260.009 651.712 274.359C659.838 285.159 666.644 306.611 667.267 333.961C667.768 355.959 668 377.689 668 400" stroke="#3251D9" stroke-opacity="0.5" stroke-width="3" stroke-linecap="round" stroke-dasharray="6 6"/>
</g>
<defs>
<clipPath id="clip0_16_15">
<rect width="1139" height="400" fill="white"/>
</clipPath>
</defs>
</svg>
