<svg width="1139" height="400" viewBox="0 0 1139 400" fill="none" xmlns="http://www.w3.org/2000/svg">
<path d="M833.669 13.1223C948.47 -5.21453 1007.71 31.491 1008.01 32.5823C1011.23 34.3336 1014.47 36.0645 1017.51 38.0517C1022.35 41.2138 1027.07 44.5419 1031.77 47.8772C1034.09 49.5212 1036.36 51.2498 1038.48 53.1073C1040 54.4423 1041.13 56.164 1042.63 57.5201C1046.09 60.6333 1049.8 63.5058 1053.16 66.6985C1059.2 72.4321 1065.15 78.2564 1070.97 84.1809C1075.67 88.9673 1080.2 93.904 1084.68 98.8746C1087.79 102.329 1090.68 105.951 1093.66 109.504C1096.15 112.462 1098.84 115.295 1101.03 118.427C1103.63 122.129 1105.9 126.04 1108.11 129.958C1110.38 133.992 1112.6 138.068 1114.49 142.263C1116.75 147.284 1119.78 152.06 1120.02 157.768C1120.21 162.4 1121.08 167.005 1121.37 171.637C1121.71 177.082 1121.01 182.486 1119.96 187.846C1119.05 192.474 1117.76 197.025 1115.3 201.143C1112.71 205.486 1109.89 209.735 1106.88 213.839C1103.26 218.766 1098.93 223.114 1093.67 226.661C1088.75 229.972 1083.39 232.459 1077.81 234.551C1072.58 236.507 1067.27 238.248 1062.02 240.159C1059.01 241.256 1056.09 242.546 1053.09 243.672C1048.23 245.498 1043.29 247.151 1038.48 249.073C1030.98 252.069 1024.33 256.198 1018.86 261.931C1015.29 265.664 1011.41 269.146 1007.63 272.701C1003.92 276.2 1000.11 279.618 996.41 283.136C994.858 284.613 993.618 286.38 992.009 287.793C989.628 289.883 987.075 291.808 984.54 293.741C982.033 295.652 979.669 297.837 976.87 299.282C970.678 302.477 964.533 305.793 957.623 307.664C951.622 309.289 945.778 311.261 939.53 312.217C933.076 313.205 926.669 314.119 920.123 314.112C911.732 314.103 903.34 314.132 894.948 314.095C892.884 314.086 890.795 314.044 888.764 313.745C883.293 312.939 877.835 312.042 872.394 311.074C868.052 310.301 863.737 309.395 859.421 308.501L859.269 308.469C856.123 307.817 852.973 307.165 849.864 306.38C844.448 305.012 839.054 303.567 833.669 302.1C826.313 300.095 819.78 296.172 812.32 294.336C808.348 293.359 804.524 291.814 800.712 290.348C794.169 287.833 787.669 285.222 781.192 282.567C778.179 281.332 775.354 279.665 772.278 278.611C766.077 276.486 760.291 273.649 754.813 270.298C750.32 267.55 746.122 264.393 741.671 261.583C735.451 257.657 729.539 253.419 724.825 247.934C721.45 244.006 717.902 240.153 715.029 235.919C710.97 229.937 707.252 223.733 703.78 217.439C700.534 211.555 697.731 205.458 694.865 199.401C692.986 195.429 691.114 191.432 689.65 187.321C687.945 182.534 686.828 177.568 685.192 172.757C683.883 168.91 683.401 165.014 683.448 161.028C683.461 159.956 683.765 158.886 683.78 157.814C683.924 147.353 684.004 136.891 684.186 126.43C684.219 124.564 684.578 122.694 684.895 120.841C685.449 117.6 686.062 114.367 686.701 111.139C687.234 108.446 687.601 105.698 688.457 103.091C690.917 95.6013 694.08 88.3581 698.29 81.5496C701.061 77.0662 703.938 72.6358 706.886 68.2502C707.804 66.8848 709.124 65.7533 710.237 64.4974C712.49 61.9554 714.241 59.76 717.002 56.8788C749.623 22.8342 795.812 19.1692 833.669 13.1223Z" fill="#3251D9"/>
<path d="M672.74 108.42C670.403 113.512 668.57 118.563 667.625 123.907C666.875 128.152 665.644 132.323 664.808 136.558C664.358 138.833 664.366 141.183 664.028 143.482C663.447 147.434 662.757 151.374 662.111 155.318C661.792 157.263 661.374 159.199 661.165 161.154C660.405 168.262 659.806 175.38 660.059 182.534C660.192 186.307 660.039 190.109 660.49 193.848C661.06 198.583 662.156 203.261 662.945 207.976C663.502 211.301 663.799 214.667 664.437 217.977C665.517 223.584 667.368 228.977 670.493 233.922C671.867 236.095 673.425 238.169 674.917 240.277C675.926 241.701 679.085 242.946 680.445 242.677C682.313 242.308 682.988 241.036 682.821 239.628C682.498 236.906 682.011 234.17 681.232 231.531C679.621 226.074 677.57 220.725 676.091 215.241C675.012 211.242 674.537 207.102 673.833 203.019C672.964 197.981 672.115 192.939 671.305 187.893C671.091 186.555 671 185.195 670.939 183.841C670.788 180.535 670.702 177.227 670.562 173.92C670.468 171.73 670.139 169.534 670.241 167.353C670.49 162.066 670.884 156.783 671.307 151.505C671.584 148.061 671.942 144.619 672.401 141.192C672.768 138.457 673.348 135.747 673.826 133.025C674.314 130.249 674.682 127.449 675.309 124.7C675.878 122.209 676.647 119.75 677.465 117.316C679.593 110.982 681.75 104.655 683.986 98.3536C685.66 93.6361 687.489 88.9658 689.222 84.2661C689.985 82.1974 689.508 80.9894 687.787 80.9821C686.416 80.9762 685.308 81.7836 684.702 82.9912C684.185 84.0211 683.755 85.088 683.242 86.1196C680.836 90.9547 678.366 95.7626 676.021 100.623C674.817 103.12 673.827 105.706 672.74 108.42Z" fill="#3251D9"/>
<path d="M1092.36 281.985C1087.49 280.867 1082.83 279.62 1078.09 278.675C1074.72 278.002 1071.2 277.142 1067.85 277.441C1063.71 277.81 1059.32 276.645 1055.41 278.657C1052.85 279.982 1050.34 281.44 1047.97 283.049C1043.54 286.053 1040.63 290.205 1038.24 294.696C1035.66 299.534 1034.04 304.663 1032.97 309.94C1032.57 311.943 1032.16 314.016 1032.29 316.025C1032.5 319.041 1033.14 322.037 1033.68 325.028C1034.36 328.741 1035.77 332.233 1037.46 335.647C1039.79 340.34 1043.95 343.43 1048.31 346.309C1053.41 349.678 1058.98 352.319 1064.97 353.963C1068.51 354.933 1072.27 355.283 1075.95 355.747C1083.07 356.644 1089.96 354.985 1096.72 353.443C1106.4 351.232 1111.95 344.659 1114.74 336.157C1116.27 331.501 1117.03 326.626 1118.06 321.835C1118.63 319.186 1119.29 316.52 1119.45 313.839C1119.59 311.66 1119.22 309.414 1118.77 307.253C1117.88 303.025 1115.94 299.168 1113.38 295.58C1111.29 292.654 1108.3 290.561 1105.44 288.366C1101.61 285.433 1097.1 283.662 1092.36 281.985Z" fill="#3251D9"/>
<path d="M1110.14 249.695C1108.98 251.102 1107.72 252.333 1106.92 253.784C1106.47 254.605 1106.48 255.893 1106.84 256.783C1107.47 258.359 1109.26 258.268 1110.56 257.919C1111.92 257.554 1113.25 256.742 1114.31 255.839C1119.95 251.033 1124.92 245.638 1129.13 239.733C1132.69 234.737 1135.47 229.302 1136.46 223.289C1137.11 219.362 1137.68 215.404 1137.89 211.442C1138.3 204.055 1138.61 196.655 1138.61 189.26C1138.6 182.981 1137.46 176.824 1134.69 171.005C1133.77 169.088 1130.71 166.615 1128.15 166.753C1126.14 166.861 1124.18 168.216 1124.23 170.066C1124.3 172.757 1124.65 175.45 1125.05 178.121C1125.51 181.215 1126.19 184.279 1126.7 187.369C1127.13 190.014 1127.69 192.672 1127.74 195.332C1127.83 199.753 1127.84 204.206 1127.35 208.595C1126.89 212.722 1125.86 216.807 1124.87 220.867C1123.7 225.675 1122.47 230.513 1119.8 234.838C1116.72 239.821 1113.43 244.692 1110.14 249.695Z" fill="#3251D9"/>
<path d="M705.821 267.47C704.342 265.916 702.891 264.492 701.577 262.967C698.325 259.197 695.145 255.374 691.915 251.588C690.971 250.481 689.673 249.783 688.236 250.45C686.809 251.112 687.005 252.573 687.084 253.824C687.264 256.717 688.857 259.129 690.591 261.35C694.232 266.01 698.065 270.56 702.602 274.521C707.344 278.661 712.332 282.522 717.79 285.87C720.728 287.673 723.554 289.585 727.103 290.159C727.887 290.286 729.287 290.231 729.458 289.872C729.797 289.162 729.82 287.954 729.359 287.36C728.356 286.069 727.026 284.974 725.725 283.909C723.452 282.05 721.049 280.326 718.792 278.451C714.465 274.854 710.201 271.19 705.821 267.47Z" fill="#3251D9"/>
<path d="M667.057 4.5603C668.402 17.5548 669.119 31.921 681.132 39.3775C686.86 42.9328 693.811 45.2028 700.191 47.2231C705.512 48.9083 710.599 51.1521 715.882 52.9811C720.172 54.4661 723.962 57.0663 728.274 58.5033" stroke="#3251D9" stroke-opacity="0.5" stroke-width="3" stroke-linecap="round" stroke-dasharray="6 6"/>
</svg>
